<svg width="24" height="24" viewBox="0 0 24 24" fill="none" xmlns="http://www.w3.org/2000/svg">
<path d="M7 5C6.44772 5 6 5.44772 6 6C6 6.55228 6.44772 7 7 7V5ZM11 7C11.5523 7 12 6.55228 12 6C12 5.44772 11.5523 5 11 5V7ZM7 9C6.44772 9 6 9.44772 6 10C6 10.5523 6.44772 11 7 11V9ZM11 11C11.5523 11 12 10.5523 12 10C12 9.44772 11.5523 9 11 9V11ZM7 13C6.44772 13 6 13.4477 6 14C6 14.5523 6.44772 15 7 15V13ZM11 15C11.5523 15 12 14.5523 12 14C12 13.4477 11.5523 13 11 13V15ZM7 17C6.44772 17 6 17.4477 6 18C6 18.5523 6.44772 19 7 19V17ZM11 19C11.5523 19 12 18.5523 12 18C12 17.4477 11.5523 17 11 17V19ZM21 22V23H22V22H21ZM3 22H2V23H3V22ZM7 7H11V5H7V7ZM7 11H11V9H7V11ZM7 15H11V13H7V15ZM7 19H11V17H7V19ZM15 11H17V9H15V11ZM20 14V22H22V14H20ZM21 21H15V23H21V21ZM17 11C18.6569 11 20 12.3431 20 14H22C22 11.2386 19.7614 9 17 9V11ZM7 3H11V1H7V3ZM14 6V22H16V6H14ZM15 21H3V23H15V21ZM4 22V6H2V22H4ZM11 3C12.6569 3 14 4.34315 14 6H16C16 3.23858 13.7614 1 11 1V3ZM7 1C4.23858 1 2 3.23858 2 6H4C4 4.34315 5.34315 3 7 3V1Z" fill="#DDD9ED"/>
</svg>
