<svg width="60" height="60" viewBox="0 0 60 60" fill="none" xmlns="http://www.w3.org/2000/svg">
<path d="M27.5 28.5C26.6716 28.5 26 29.1716 26 30C26 30.8284 26.6716 31.5 27.5 31.5V28.5ZM35 31.5C35.8284 31.5 36.5 30.8284 36.5 30C36.5 29.1716 35.8284 28.5 35 28.5V31.5ZM27.5 38.5C26.6716 38.5 26 39.1716 26 40C26 40.8284 26.6716 41.5 27.5 41.5V38.5ZM40 41.5C40.8284 41.5 41.5 40.8284 41.5 40C41.5 39.1716 40.8284 38.5 40 38.5V41.5ZM20 28.5C19.1716 28.5 18.5 29.1716 18.5 30C18.5 30.8284 19.1716 31.5 20 31.5V28.5ZM20.025 31.5C20.8534 31.5 21.525 30.8284 21.525 30C21.525 29.1716 20.8534 28.5 20.025 28.5V31.5ZM20 38.5C19.1716 38.5 18.5 39.1716 18.5 40C18.5 40.8284 19.1716 41.5 20 41.5V38.5ZM20.025 41.5C20.8534 41.5 21.525 40.8284 21.525 40C21.525 39.1716 20.8534 38.5 20.025 38.5V41.5ZM48.5 20V45H51.5V20H48.5ZM40 53.5H20V56.5H40V53.5ZM11.5 45V20H8.5V45H11.5ZM20 53.5C15.3056 53.5 11.5 49.6944 11.5 45H8.5C8.5 51.3513 13.6487 56.5 20 56.5V53.5ZM48.5 45C48.5 49.6944 44.6944 53.5 40 53.5V56.5C46.3513 56.5 51.5 51.3513 51.5 45H48.5ZM51.5 20C51.5 13.6487 46.3513 8.5 40 8.5V11.5C44.6944 11.5 48.5 15.3056 48.5 20H51.5ZM11.5 20C11.5 15.3056 15.3056 11.5 20 11.5V8.5C13.6487 8.5 8.5 13.6487 8.5 20H11.5ZM23.75 6.5H36.25V3.5H23.75V6.5ZM38.5 8.75V11.25H41.5V8.75H38.5ZM36.25 13.5H23.75V16.5H36.25V13.5ZM21.5 11.25V8.75H18.5V11.25H21.5ZM23.75 13.5C22.5074 13.5 21.5 12.4926 21.5 11.25H18.5C18.5 14.1495 20.8505 16.5 23.75 16.5V13.5ZM38.5 11.25C38.5 12.4926 37.4926 13.5 36.25 13.5V16.5C39.1495 16.5 41.5 14.1495 41.5 11.25H38.5ZM36.25 6.5C37.4926 6.5 38.5 7.50736 38.5 8.75H41.5C41.5 5.85051 39.1495 3.5 36.25 3.5V6.5ZM23.75 3.5C20.8505 3.5 18.5 5.85051 18.5 8.75H21.5C21.5 7.50736 22.5074 6.5 23.75 6.5V3.5ZM27.5 31.5H35V28.5H27.5V31.5ZM27.5 41.5H40V38.5H27.5V41.5ZM20 31.5H20.025V28.5H20V31.5ZM20 41.5H20.025V38.5H20V41.5Z" fill="#00B627"/>
</svg>
