<svg width="60" height="60" viewBox="0 0 60 60" fill="none" xmlns="http://www.w3.org/2000/svg">
<path d="M6.35176 54.0348C5.81871 54.669 5.90068 55.6152 6.53483 56.1482C7.16899 56.6813 8.11519 56.5993 8.64824 55.9652L6.35176 54.0348ZM3.93934 11.4393C3.35355 12.0251 3.35355 12.9749 3.93934 13.5607C4.52513 14.1464 5.47487 14.1464 6.06066 13.5607L3.93934 11.4393ZM13.5607 6.06066C14.1464 5.47487 14.1464 4.52513 13.5607 3.93934C12.9749 3.35355 12.0251 3.35355 11.4393 3.93934L13.5607 6.06066ZM51.3518 55.9652C51.8848 56.5993 52.831 56.6813 53.4652 56.1482C54.0993 55.6152 54.1813 54.669 53.6482 54.0348L51.3518 55.9652ZM48.5607 3.93934C47.9749 3.35355 47.0251 3.35355 46.4393 3.93934C45.8536 4.52513 45.8536 5.47487 46.4393 6.06066L48.5607 3.93934ZM53.9393 13.5607C54.5251 14.1464 55.4749 14.1464 56.0607 13.5607C56.6464 12.9749 56.6464 12.0251 56.0607 11.4393L53.9393 13.5607ZM21.0609 30.0396C20.4753 29.4537 19.5255 29.4534 18.9396 30.0391C18.3537 30.6247 18.3534 31.5745 18.9391 32.1604L21.0609 30.0396ZM41.0561 26.8152C41.6444 26.2319 41.6485 25.2822 41.0652 24.6939C40.4819 24.1056 39.5322 24.1015 38.9439 24.6848L41.0561 26.8152ZM26.3968 37.5L25.3359 38.5604L25.3458 38.5702L26.3968 37.5ZM28.1486 37.5L29.1997 38.5702L29.2047 38.5652L28.1486 37.5ZM9 31.25C9 19.652 18.402 10.25 30 10.25V7.25C16.7452 7.25 6 17.9952 6 31.25H9ZM30 10.25C41.598 10.25 51 19.652 51 31.25H54C54 17.9952 43.2548 7.25 30 7.25V10.25ZM6.06066 13.5607L13.5607 6.06066L11.4393 3.93934L3.93934 11.4393L6.06066 13.5607ZM46.4393 6.06066L53.9393 13.5607L56.0607 11.4393L48.5607 3.93934L46.4393 6.06066ZM44.7617 48.1251L51.3518 55.9652L53.6482 54.0348L47.0581 46.1947L44.7617 48.1251ZM51 31.25C51 37.0494 48.6511 42.2973 44.8492 46.0992L46.9706 48.2206C51.3121 43.8791 54 37.877 54 31.25H51ZM44.8492 46.0992C41.0473 49.9011 35.7994 52.25 30 52.25V55.25C36.627 55.25 42.6291 52.5621 46.9706 48.2206L44.8492 46.0992ZM8.64824 55.9652L15.2383 48.1251L12.9419 46.1947L6.35176 54.0348L8.64824 55.9652ZM30 52.25C24.2006 52.25 18.9527 49.9011 15.1508 46.0992L13.0294 48.2206C17.3709 52.5621 23.373 55.25 30 55.25V52.25ZM15.1508 46.0992C11.3489 42.2973 9 37.0494 9 31.25H6C6 37.877 8.68793 43.8791 13.0294 48.2206L15.1508 46.0992ZM18.9391 32.1604L25.3359 38.5604L27.4578 36.4396L21.0609 30.0396L18.9391 32.1604ZM29.2047 38.5652L41.0561 26.8152L38.9439 24.6848L27.0925 36.4348L29.2047 38.5652ZM25.3458 38.5702C26.4156 39.6209 28.1299 39.6209 29.1997 38.5702L27.0976 36.4298C27.1948 36.3343 27.3507 36.3343 27.4479 36.4298L25.3458 38.5702Z" fill="#D400F9"/>
</svg>
