<svg width="60" height="60" viewBox="0 0 60 60" fill="none" xmlns="http://www.w3.org/2000/svg">
<path d="M27.0977 40.6835L19.961 33.5468M27.0977 40.6835C27.0977 40.6835 39.587 35.331 46.7237 28.1943C54.8974 20.0205 55.6445 5 55.6445 5C55.6445 5 40.6244 5.7475 32.4502 13.9209C25.3132 21.0572 19.961 33.5468 19.961 33.5468M27.0977 40.6835L31.3181 55L33.6632 54.3716C39.0833 52.9193 42.2781 47.325 40.7749 41.9189L38.7055 34.4495M19.961 33.5468L5.64453 29.3264L6.2729 26.9813C7.72519 21.5613 13.3195 18.3664 18.7256 19.8696L26.1949 21.9389M18.1768 49.6044C14.6085 53.1727 5.68762 54.9569 5.68762 54.9569C5.68762 54.9569 7.47179 46.036 11.0401 42.4677C13.0109 40.4969 16.2061 40.4969 18.1768 42.4677C20.1476 44.4384 20.1476 47.6336 18.1768 49.6044ZM43.156 21.0583C42.1706 22.0436 40.573 22.0436 39.5876 21.0583C38.6023 20.0729 38.6023 18.4753 39.5876 17.4899C40.573 16.5045 42.1706 16.5045 43.156 17.4899C44.1413 18.4753 44.1413 20.0729 43.156 21.0583Z" stroke="#6826F7" stroke-width="3" stroke-linejoin="round"/>
</svg>
