<svg width="32" height="32" viewBox="0 0 32 32" fill="none" xmlns="http://www.w3.org/2000/svg">
<path d="M16 32C24.8366 32 32 24.8366 32 16C32 7.16344 24.8366 0 16 0C7.16344 0 0 7.16344 0 16C0 24.8366 7.16344 32 16 32Z" fill="#6826F7"/>
<path d="M20.8 8.2002H11.2C9.53334 8.2002 8.20001 9.53352 8.20001 11.2002V20.8002C8.20001 22.4669 9.53334 23.8002 11.2 23.8002H20.8C22.4667 23.8002 23.8 22.4669 23.8 20.8002V11.2002C23.8 9.53352 22.4667 8.2002 20.8 8.2002ZM21.6667 10.0002H22V12.6669H19.3334V10.0002H21.6667ZM13.8 14.4002C14.2667 13.7335 15.1334 13.2669 16 13.2669C16.8667 13.2669 17.7334 13.7335 18.2 14.4002C18.5334 14.8669 18.7334 15.4002 18.7334 16.0002C18.7334 17.5335 17.4667 18.7335 16 18.7335C14.5334 18.7335 13.2667 17.5335 13.2667 16.0002C13.2667 15.4002 13.4667 14.8669 13.8 14.4002ZM22.2667 20.8002C22.2667 21.6002 21.6 22.2669 20.8 22.2669H11.2C10.4 22.2669 9.73335 21.6002 9.73335 20.8002V14.4002H12.0667C11.8667 14.8669 11.7334 15.4669 11.7334 16.0002C11.7334 18.3335 13.6667 20.2669 16 20.2669C18.3334 20.2669 20.2667 18.3335 20.2667 16.0002C20.2667 15.4669 20.1333 14.8669 19.9334 14.4002H22.2667L22.2667 20.8002Z" fill="white"/>
</svg>
