<svg width="24" height="24" fill="none" xmlns="http://www.w3.org/2000/svg"><path d="M8.58 2.043c-1.692.132-3.264 1.2-4.03 2.737a4.982 4.982 0 0 0 0 4.44c.222.447.483.814.849 1.196.979 1.024 2.202 1.55 3.601 1.55s2.622-.526 3.601-1.55c.902-.942 1.365-2.102 1.365-3.416 0-1.399-.526-2.622-1.55-3.601-1.033-.989-2.391-1.468-3.836-1.356m6.03-.003c-.568.084-.956.658-.81 1.199.07.259.256.495.493.624.187.102.259.115.767.142.686.037.819.068 1.3.304.325.159.436.242.762.569.326.326.41.438.569.762.225.457.309.829.309 1.365a2.8 2.8 0 0 1-.311 1.355c-.158.326-.239.434-.567.762-.326.327-.437.41-.762.569-.481.236-.614.267-1.3.304-.508.027-.58.04-.767.142a.963.963 0 0 0-.188 1.582c.252.221.377.255.936.25 1.371-.011 2.595-.545 3.56-1.553.902-.942 1.365-2.102 1.365-3.416 0-1.399-.526-2.622-1.55-3.601-.884-.846-1.971-1.307-3.236-1.371a3.731 3.731 0 0 0-.57.012M9.687 4.061c.163.034.462.144.673.248a3.067 3.067 0 0 1 1.331 1.331c.225.457.309.829.309 1.365a2.8 2.8 0 0 1-.311 1.355c-.158.326-.239.434-.567.762-.326.326-.438.41-.762.569A2.802 2.802 0 0 1 9 10c-.531 0-.904-.085-1.36-.309-.324-.159-.436-.243-.762-.569-.326-.326-.41-.438-.569-.762A2.802 2.802 0 0 1 6 7c0-.531.085-.904.309-1.36.159-.324.243-.436.569-.762.325-.326.438-.41.762-.57.209-.103.497-.212.64-.243.353-.077 1.048-.079 1.407-.004M4.58 14.04a5.01 5.01 0 0 0-4.299 3.392c-.231.693-.257.936-.259 2.428-.002 1.343-.001 1.362.091 1.548.175.355.499.56.887.56a.964.964 0 0 0 .887-.56c.09-.183.094-.229.118-1.608.015-.875.042-1.489.071-1.6.026-.099.131-.351.233-.56.159-.325.242-.436.569-.762.326-.326.438-.41.762-.569C4.298 15.985 4.043 16 9 16c4.957 0 4.702-.015 5.36.309.324.159.436.243.762.569.327.326.41.437.569.762.102.209.207.461.233.56.029.111.056.725.071 1.6.024 1.379.028 1.425.118 1.608.175.355.499.56.887.56a.964.964 0 0 0 .887-.56c.092-.186.093-.205.091-1.548-.002-1.13-.014-1.421-.073-1.72-.198-1.013-.622-1.843-1.304-2.556-.734-.767-1.56-1.229-2.631-1.47-.387-.088-.419-.088-4.71-.097-2.376-.004-4.482.006-4.68.023m13.993.001a.887.887 0 0 0-.519.286c-.204.217-.271.384-.271.673 0 .297.087.501.303.708.211.202.391.255.991.294.678.044.811.076 1.283.307.325.159.436.242.762.569.327.326.41.437.569.762.102.209.207.461.233.56.029.111.056.725.071 1.6.024 1.379.028 1.425.118 1.608.175.355.499.56.887.56a.964.964 0 0 0 .887-.56c.092-.186.093-.205.091-1.548-.002-1.495-.028-1.735-.262-2.436a4.994 4.994 0 0 0-3.747-3.3c-.456-.09-1.158-.132-1.396-.083" fill-rule="evenodd" fill="#000"/></svg>