<svg width="24" height="24" viewBox="0 0 24 24" fill="none" xmlns="http://www.w3.org/2000/svg">
<path d="M13.9712 19.6676C12.8968 19.2155 11.8726 18.6528 10.8986 17.9998C9.93465 17.3468 9.04099 16.6133 8.22766 15.7895C7.40429 14.9657 6.67128 14.0715 6.0186 13.1171C5.36593 12.1526 4.80363 11.1178 4.35178 10.0428C3.61877 8.32478 3.16692 6.49627 3.00626 4.63762C2.92593 3.75351 3.62881 3 4.51243 3H7.54486C8.30799 3 8.95062 3.57266 9.03095 4.33622C9.08115 4.81846 9.16148 5.29066 9.28198 5.76286C9.42255 6.34557 9.60329 6.92828 9.8242 7.48085C10.0351 7.99324 9.98486 8.57595 9.64346 9.00796L9.01087 9.83179C8.7498 10.1633 8.71967 10.6355 8.96066 10.9872C9.49284 11.7909 10.1054 12.5344 10.7881 13.2175C11.5513 13.9811 12.3947 14.6643 13.3085 15.2369C13.4892 15.3475 13.7202 15.3374 13.8909 15.2068L14.9954 14.3629C15.4372 14.0313 16.0095 13.9811 16.5216 14.182C17.0839 14.4031 17.6563 14.5839 18.2387 14.7246C18.7106 14.8351 19.1826 14.9154 19.6645 14.9657C20.4277 15.0461 21 15.689 21 16.4526V19.4867C21 20.3708 20.2469 21.0741 19.3633 20.9937C18.6252 20.9299 16.0702 20.5818 13.9712 19.6676Z" stroke="#6826F7" stroke-width="2"/>
</svg>
