<svg width="60" height="60" viewBox="0 0 60 60" fill="none" xmlns="http://www.w3.org/2000/svg">
<path d="M53.5637 6.41196C51.0822 3.92927 46.0633 4.99741 43.5841 7.47787L37.8251 13.168C36.6244 14.3693 34.9025 14.8902 33.2365 14.5561L13.1188 10.5219C11.4528 10.1878 9.73092 10.7087 8.53021 11.9101L5.55853 14.8832C4.53171 15.9106 4.98672 17.6646 6.38381 18.0645L27.025 23.9735L17.2574 33.746C16.6267 34.377 15.711 34.6304 14.8452 34.4135L10.4501 33.3123C9.58423 33.0953 8.66854 33.3487 8.03782 33.9798L5.85798 36.1607C4.72489 37.2943 4.91262 39.1827 6.24692 40.073L12.7577 44.4173C13.8743 45.1624 14.8327 46.1212 15.5774 47.2384L19.9195 53.7524C20.8094 55.0874 22.6968 55.2752 23.8299 54.1416L26.0097 51.9606C26.6404 51.3296 26.8937 50.4135 26.6768 49.5472L25.5762 45.1499C25.3594 44.2836 25.6126 43.3675 26.2434 42.7364L36.011 32.9639L41.917 53.6155C42.3167 55.0133 44.0698 55.4685 45.0967 54.4412L48.0683 51.468C49.269 50.2667 49.7897 48.5439 49.4558 46.8771L45.4236 26.7493C45.0897 25.0825 45.6103 23.3597 46.811 22.1584L52.57 16.4683C55.0492 13.9879 56.0451 8.89465 53.5637 6.41196Z" fill="white"/>
</svg>
