<svg width="24" height="24" viewBox="0 0 24 24" fill="none" xmlns="http://www.w3.org/2000/svg">
<g id="duotone-document-01-note">
<path id="icon_bg" opacity="0.1" fill-rule="evenodd" clip-rule="evenodd" d="M14 3.41421V7C14 7.55228 14.4477 8 15 8H18.5858L14 3.41421ZM3 6C3 3.23858 5.23858 1 8 1H14C14.2652 1 14.5196 1.10536 14.7071 1.29289L20.7071 7.29289C20.8946 7.48043 21 7.73478 21 8V18C21 20.7614 18.7614 23 16 23H8C5.23858 23 3 20.7614 3 18V6Z" fill="#6826F7"/>
<path id="icon" fill-rule="evenodd" clip-rule="evenodd" d="M8 3C6.34315 3 5 4.34315 5 6V18C5 19.6569 6.34315 21 8 21H16C17.6569 21 19 19.6569 19 18V9H16C14.3431 9 13 7.65685 13 6V3H8ZM15 4.41421L17.5858 7H16C15.4477 7 15 6.55228 15 6V4.41421ZM3 6C3 3.23858 5.23858 1 8 1H14C14.2652 1 14.5196 1.10536 14.7071 1.29289L20.7071 7.29289C20.8946 7.48043 21 7.73478 21 8V18C21 20.7614 18.7614 23 16 23H8C5.23858 23 3 20.7614 3 18V6ZM8 13C8 12.4477 8.44772 12 9 12H15C15.5523 12 16 12.4477 16 13C16 13.5523 15.5523 14 15 14H9C8.44772 14 8 13.5523 8 13ZM8 17C8 16.4477 8.44772 16 9 16H12C12.5523 16 13 16.4477 13 17C13 17.5523 12.5523 18 12 18H9C8.44772 18 8 17.5523 8 17Z" fill="#6826F7"/>
</g>
</svg>
