<svg width="24" height="24" fill="none" xmlns="http://www.w3.org/2000/svg"><path d="M7.52 1.027c-1.97.218-3.58 1.488-4.234 3.342-.283.802-.266.32-.266 7.631 0 6.161.005 6.602.071 6.931a5.042 5.042 0 0 0 3.978 3.978c.325.066.691.071 4.931.071s4.606-.005 4.931-.071a5.047 5.047 0 0 0 3.978-3.978c.066-.327.071-.724.071-5.771V7.74l-.094-.18c-.135-.26-6.145-6.273-6.423-6.428l-.203-.112-3.3-.004c-1.815-.002-3.363.003-3.44.011m5.49 3.723c.016 1.977.012 1.948.337 2.61.157.32.243.437.55.743.306.307.423.393.743.55.66.324.633.32 2.611.337l1.751.015-.012 4.768c-.014 5.342.01 4.912-.312 5.567-.366.742-1.096 1.339-1.918 1.568-.244.067-.542.072-4.76.072s-4.516-.005-4.76-.072c-.822-.229-1.552-.826-1.918-1.568-.326-.664-.299-.021-.312-7.2-.013-7.034-.024-6.707.226-7.303a3.09 3.09 0 0 1 1.601-1.601c.539-.226.589-.229 3.491-.233L12.995 3l.015 1.75m3.668 2.241c-.789.009-.901.003-1.05-.064a1 1 0 0 1-.525-.496c-.102-.204-.103-.22-.103-1.109V4.42l1.28 1.28 1.281 1.28-.883.011m-8.011 5.074C8.303 12.177 8 12.602 8 13c0 .402.312.827.69.939.307.091 6.313.091 6.62 0 .378-.112.69-.537.69-.939 0-.402-.312-.827-.69-.939-.302-.09-6.35-.086-6.643.004m0 4C8.303 16.177 8 16.602 8 17c0 .237.12.514.303.697.297.297.341.303 2.197.303s1.9-.006 2.197-.303c.183-.183.303-.46.303-.697 0-.402-.312-.827-.69-.939-.297-.088-3.354-.085-3.643.004" fill="#6826F7" fill-rule="evenodd"/></svg>