<svg width="24" height="24" fill="none" xmlns="http://www.w3.org/2000/svg"><path d="M8.339 2.038c-1.459.134-2.856.948-3.649 2.128-.186.277-2.89 5.115-3.171 5.674-.659 1.312-.659 3.008 0 4.32.281.559 2.985 5.397 3.171 5.674.685 1.018 1.822 1.768 3.113 2.054l.417.092h3.76c4.161 0 4.021.008 4.84-.265.974-.325 1.945-1.06 2.506-1.898.197-.295 2.845-5.041 3.133-5.616A4.609 4.609 0 0 0 22.973 12c0-.826-.153-1.479-.514-2.201-.288-.575-2.936-5.321-3.133-5.616-.412-.615-1.11-1.233-1.798-1.593a5.046 5.046 0 0 0-1.318-.476c-.384-.087-.446-.088-3.97-.096-1.969-.005-3.724.004-3.901.02m7.521 2.017c.302.066.676.217.967.391.293.175.725.595.909.884.08.126.799 1.405 1.597 2.842 1.088 1.959 1.475 2.692 1.549 2.93.085.276.098.395.098.898s-.013.622-.098.898c-.074.238-.461.971-1.549 2.93a191.73 191.73 0 0 1-1.597 2.842c-.296.464-.826.893-1.385 1.121-.512.208-.47.206-4.355.208-3.508.001-3.633-.002-3.94-.08-.748-.191-1.404-.649-1.786-1.246-.283-.442-2.983-5.344-3.081-5.593a3.133 3.133 0 0 1 .027-2.23c.098-.232 2.732-5.008 2.996-5.43A3.005 3.005 0 0 1 8.04 4.083c.287-.075.456-.079 3.94-.079 2.848-.001 3.692.01 3.88.051m-4.593 3.526c-1.869.314-3.384 1.84-3.688 3.717-.391 2.41 1.293 4.729 3.719 5.123 2.973.482 5.605-2.15 5.123-5.123-.395-2.434-2.737-4.123-5.154-3.717m1.493 2.016c.753.234 1.41.897 1.65 1.663.07.22.088.378.088.74s-.018.52-.088.74a2.617 2.617 0 0 1-1.67 1.67c-.396.125-1.084.125-1.48 0a2.617 2.617 0 0 1-1.67-1.67c-.125-.396-.125-1.084 0-1.48.274-.876 1.061-1.58 1.944-1.739.309-.056.926-.018 1.226.076" fill-rule="evenodd" fill="#000"/></svg>