<svg width="60" height="60" viewBox="0 0 60 60" fill="none" xmlns="http://www.w3.org/2000/svg">
<path d="M25.13 37.5718L23.8092 38.2827L25.13 37.5718ZM24.377 36.3066L23.2001 37.2366L24.377 36.3066ZM22.4282 34.87L21.7173 36.1908L21.7173 36.1908L22.4282 34.87ZM23.6934 35.623L22.7634 36.7999V36.7999L23.6934 35.623ZM53.2943 15.1156L54.7172 15.5903L53.2943 15.1156ZM54.8455 7.67275L53.4326 8.17627L54.8455 7.67275ZM44.8844 6.70569L45.3591 8.12861L44.8844 6.70569ZM52.3272 5.15448L51.8237 6.56745L52.3272 5.15448ZM13.3196 17.2352L12.8449 15.8122L13.3196 17.2352ZM5.61638 20.8287L6.89407 21.6146L5.61638 20.8287ZM12.2662 29.4002L12.9772 28.0794L12.2662 29.4002ZM5.29468 24.5441L6.6883 23.9893L5.29468 24.5441ZM42.7649 46.6804L41.3419 46.2058L42.7649 46.6804ZM39.1713 54.3836L38.3854 53.1059L39.1713 54.3836ZM30.5998 47.7338L31.9206 47.0228L30.5998 47.7338ZM35.4559 54.7053L36.0107 53.3117L35.4559 54.7053ZM37.005 25.1163C37.5908 24.5305 37.5908 23.5807 37.005 22.995C36.4193 22.4092 35.4695 22.4092 34.8837 22.995L37.005 25.1163ZM51.8714 14.6409L41.3419 46.2058L44.1878 47.1551L54.7172 15.5903L51.8714 14.6409ZM13.7942 18.6581L45.3591 8.12861L44.4097 5.28277L12.8449 15.8122L13.7942 18.6581ZM31.9206 47.0228L26.4508 36.8609L23.8092 38.2827L29.279 48.4447L31.9206 47.0228ZM23.1391 33.5492L12.9772 28.0794L11.5553 30.721L21.7173 36.1908L23.1391 33.5492ZM26.4508 36.8609C26.1236 36.253 25.88 35.7893 25.5539 35.3766L23.2001 37.2366C23.3256 37.3954 23.4335 37.5847 23.8092 38.2827L26.4508 36.8609ZM21.7173 36.1908C22.4153 36.5665 22.6046 36.6744 22.7634 36.7999L24.6234 34.4461C24.2107 34.12 23.747 33.8764 23.1391 33.5492L21.7173 36.1908ZM25.5539 35.3766C25.281 35.0313 24.9687 34.719 24.6234 34.4461L22.7634 36.7999C22.9255 36.928 23.072 37.0745 23.2001 37.2366L25.5539 35.3766ZM54.7172 15.5903C55.3852 13.5878 55.9206 11.9876 56.2186 10.7209C56.5113 9.47649 56.6512 8.27119 56.2585 7.16924L53.4326 8.17627C53.521 8.42458 53.5627 8.90984 53.2983 10.0339C53.0391 11.1356 52.5583 12.5817 51.8714 14.6409L54.7172 15.5903ZM45.3591 8.12861C47.4183 7.44169 48.8644 6.96087 49.9661 6.7017C51.0902 6.43727 51.5754 6.47896 51.8237 6.56745L52.8308 3.74152C51.7288 3.34883 50.5235 3.48868 49.2791 3.78141C48.0124 4.07941 46.4122 4.61477 44.4097 5.28277L45.3591 8.12861ZM56.2585 7.16924C55.6885 5.56987 54.4301 4.31145 52.8308 3.74152L51.8237 6.56745C52.5744 6.83496 53.165 7.42556 53.4326 8.17627L56.2585 7.16924ZM12.8449 15.8122C10.5695 16.5713 8.76506 17.1717 7.43798 17.7501C6.15012 18.3115 4.99375 18.9778 4.33869 20.0429L6.89407 21.6146C7.03132 21.3914 7.42292 21.0293 8.63676 20.5002C9.81138 19.9882 11.4624 19.4359 13.7942 18.6581L12.8449 15.8122ZM12.9772 28.0794C10.8135 26.9147 9.28194 26.0887 8.21279 25.3837C7.10788 24.6551 6.78488 24.2319 6.6883 23.9893L3.90106 25.0989C4.36364 26.2609 5.38895 27.1152 6.56129 27.8882C7.7694 28.6849 9.44407 29.5846 11.5553 30.721L12.9772 28.0794ZM4.33869 20.0429C3.40274 21.5647 3.24027 23.4392 3.90106 25.0989L6.6883 23.9893C6.37813 23.2102 6.45419 22.3298 6.89407 21.6146L4.33869 20.0429ZM41.3419 46.2058C40.5641 48.5376 40.0118 50.1886 39.4998 51.3632C38.9707 52.5771 38.6086 52.9687 38.3854 53.1059L39.9571 55.6613C41.0222 55.0062 41.6885 53.8499 42.2499 52.562C42.8283 51.2349 43.4287 49.4305 44.1878 47.1551L41.3419 46.2058ZM29.279 48.4447C30.4154 50.5559 31.3151 52.2306 32.1118 53.4387C32.8848 54.611 33.7391 55.6364 34.9011 56.0989L36.0107 53.3117C35.7681 53.2151 35.3449 52.8921 34.6163 51.7872C33.9113 50.7181 33.0853 49.1865 31.9206 47.0228L29.279 48.4447ZM38.3854 53.1059C37.6702 53.5458 36.7898 53.6219 36.0107 53.3117L34.9011 56.0989C36.5608 56.7597 38.4353 56.5973 39.9571 55.6613L38.3854 53.1059ZM34.8837 22.995L23.1239 34.7547L25.2453 36.8761L37.005 25.1163L34.8837 22.995Z" fill="#6826F7"/>
</svg>
