<svg width="24" height="24" fill="none" xmlns="http://www.w3.org/2000/svg"><path d="M3.636 1.041c-1.187.132-2.238 1.066-2.545 2.26-.066.26-.071.585-.071 4.699s.005 4.439.071 4.699a3.138 3.138 0 0 0 2.21 2.21c.253.064.506.071 2.699.071 2.193 0 2.446-.007 2.699-.071a3.138 3.138 0 0 0 2.21-2.21c.066-.26.071-.585.071-4.699s-.005-4.439-.071-4.699a3.16 3.16 0 0 0-1.645-2c-.567-.273-.558-.272-3.064-.283-1.243-.006-2.397.005-2.564.023m12 0c-1.187.132-2.238 1.066-2.545 2.26-.067.264-.071.744-.071 8.699s.004 8.435.071 8.699a3.138 3.138 0 0 0 2.21 2.21c.253.064.506.071 2.699.071 2.193 0 2.446-.007 2.699-.071a3.138 3.138 0 0 0 2.21-2.21c.067-.264.071-.744.071-8.699s-.004-8.435-.071-8.699a3.16 3.16 0 0 0-1.645-2c-.567-.273-.558-.272-3.064-.283-1.243-.006-2.397.005-2.564.023M8.421 3.075c.205.093.411.299.504.504.069.153.073.381.073 4.421s-.004 4.268-.073 4.421a1.099 1.099 0 0 1-.504.504c-.15.068-.318.073-2.421.073-2.103 0-2.271-.005-2.421-.073a1.099 1.099 0 0 1-.504-.504c-.069-.153-.073-.381-.073-4.421s.004-4.268.073-4.421c.093-.205.299-.411.504-.504.15-.068.318-.073 2.421-.073 2.103 0 2.271.005 2.421.073m12 0c.205.093.411.299.504.504.07.154.073.507.073 8.421s-.003 8.267-.073 8.421a1.099 1.099 0 0 1-.504.504c-.15.068-.318.073-2.421.073-2.103 0-2.271-.005-2.421-.073a1.099 1.099 0 0 1-.504-.504c-.07-.154-.073-.507-.073-8.421s.003-8.267.073-8.421c.093-.205.299-.411.504-.504.15-.068.318-.073 2.421-.073 2.103 0 2.271.005 2.421.073" fill-rule="evenodd" fill="#000"/></svg>