<svg width="24" height="24" fill="none" xmlns="http://www.w3.org/2000/svg"><path d="M11.336 2.042A10.003 10.003 0 0 0 4.318 5.64c-1.222 1.48-1.944 3.14-2.226 5.12-.065.453-.072.88-.072 4.58 0 3.788.005 4.1.071 4.359.272 1.059 1.178 1.962 2.21 2.203.364.085 1.034.085 1.398 0 1.032-.241 1.938-1.144 2.21-2.203.064-.253.071-.506.071-2.699 0-2.193-.007-2.446-.071-2.699-.272-1.059-1.178-1.962-2.21-2.203-.361-.084-1.034-.085-1.391-.002-.15.035-.283.064-.296.064-.044 0 .023-1.178.085-1.52.406-2.211 1.601-4.055 3.435-5.296.919-.622 2.025-1.057 3.228-1.271.406-.072 2.074-.072 2.48 0a8.428 8.428 0 0 1 2.368.772c2.26 1.129 3.827 3.243 4.295 5.795.062.342.129 1.52.085 1.52-.013 0-.146-.029-.296-.064-.357-.083-1.03-.082-1.391.002-1.032.241-1.938 1.144-2.21 2.203-.064.253-.071.506-.071 2.699 0 2.193.007 2.446.071 2.699.272 1.059 1.178 1.962 2.21 2.203.364.085 1.034.085 1.398 0 1.032-.241 1.938-1.144 2.21-2.203.066-.259.071-.571.071-4.359 0-4.463.001-4.433-.245-5.54-.674-3.028-2.813-5.633-5.681-6.917a10.102 10.102 0 0 0-4.718-.841M5.421 14.075c.205.093.411.299.504.504.068.15.073.318.073 2.421 0 2.521.01 2.426-.281 2.717-.197.197-.412.281-.717.281s-.52-.084-.717-.281c-.291-.291-.281-.196-.281-2.717s-.01-2.426.281-2.717c.197-.197.412-.281.717-.281.166 0 .318.026.421.073m14 0c.088.04.222.134.296.208.291.291.281.196.281 2.717s.01 2.426-.281 2.717c-.197.197-.412.281-.717.281s-.52-.084-.717-.281c-.291-.291-.281-.196-.281-2.717s-.01-2.426.281-2.717c.197-.197.412-.281.717-.281.166 0 .318.026.421.073" fill-rule="evenodd" fill="#000"/></svg>