<svg width="60" height="60" viewBox="0 0 60 60" fill="none" xmlns="http://www.w3.org/2000/svg">
<path d="M41.0511 45.4477C40.46 44.8672 39.5103 44.8758 38.9298 45.4668C38.3493 46.0578 38.3579 47.0075 38.9489 47.588L41.0511 45.4477ZM56.0511 43.5702C56.6421 42.9897 56.6507 42.04 56.0702 41.4489C55.4897 40.8579 54.54 40.8493 53.9489 41.4298L56.0511 43.5702ZM44.7976 51.2298L43.7466 52.3L44.7976 51.2298ZM46.1115 51.2298L47.1625 52.3L46.1115 51.2298ZM30 56.5C30.8284 56.5 31.5 55.8284 31.5 55C31.5 54.1716 30.8284 53.5 30 53.5V56.5ZM53.5 30C53.5 30.8284 54.1716 31.5 55 31.5C55.8284 31.5 56.5 30.8284 56.5 30H53.5ZM31.5 17.5C31.5 16.6716 30.8284 16 30 16C29.1716 16 28.5 16.6716 28.5 17.5H31.5ZM31.0114 32.3672L30.1182 33.5723H30.1182L31.0114 32.3672ZM35.3568 37.4551C36.0224 37.9484 36.9618 37.8087 37.4551 37.1432C37.9484 36.4776 37.8087 35.5382 37.1432 35.0449L35.3568 37.4551ZM38.9489 47.588L43.7466 52.3L45.8487 50.1596L41.0511 45.4477L38.9489 47.588ZM47.1625 52.3L56.0511 43.5702L53.9489 41.4298L45.0604 50.1596L47.1625 52.3ZM43.7466 52.3C44.6948 53.2313 46.2143 53.2313 47.1625 52.3L45.0604 50.1596C45.2792 49.9447 45.6299 49.9447 45.8487 50.1596L43.7466 52.3ZM30 53.5C17.0213 53.5 6.5 42.9787 6.5 30H3.5C3.5 44.6355 15.3645 56.5 30 56.5V53.5ZM6.5 30C6.5 17.0213 17.0213 6.5 30 6.5V3.5C15.3645 3.5 3.5 15.3645 3.5 30H6.5ZM30 6.5C42.9787 6.5 53.5 17.0213 53.5 30H56.5C56.5 15.3645 44.6355 3.5 30 3.5V6.5ZM28.5 17.5V30.3588H31.5V17.5H28.5ZM30.1182 33.5723L35.3568 37.4551L37.1432 35.0449L31.9045 31.1622L30.1182 33.5723ZM28.5 30.3588C28.5 31.6258 29.1003 32.8179 30.1182 33.5723L31.9045 31.1622C31.6501 30.9736 31.5 30.6755 31.5 30.3588H28.5Z" fill="#FC4130"/>
</svg>
