<svg width="60" height="60" viewBox="0 0 60 60" fill="none" xmlns="http://www.w3.org/2000/svg">
<path d="M2.5 52.5V47.5C2.5 41.9772 6.97715 37.5 12.5 37.5H32.5C38.0228 37.5 42.5 41.9772 42.5 47.5V52.5M57.5 52.5V47.5C57.5 41.9772 53.0228 37.5 47.5 37.5H46.875M36.8652 7.51982C37.0751 7.50667 37.2868 7.5 37.5 7.5C43.0228 7.5 47.5 11.9772 47.5 17.5C47.5 23.0228 43.0228 27.5 37.5 27.5C37.2868 27.5 37.0751 27.4933 36.8652 27.4802M32.5 17.5C32.5 23.0228 28.0228 27.5 22.5 27.5C16.9772 27.5 12.5 23.0228 12.5 17.5C12.5 11.9772 16.9772 7.5 22.5 7.5C28.0228 7.5 32.5 11.9772 32.5 17.5Z" stroke="#FCAF1A" stroke-width="3" stroke-linecap="round"/>
</svg>
