<svg width="0" height="0" class="hidden">
  <symbol fill="none" xmlns="http://www.w3.org/2000/svg" viewBox="0 0 24 24" id="members">
    <g id="outline-user-02-multiple">
      <path id="icon" d="M1 21V19C1 16.7909 2.79086 15 5 15H13C15.2091 15 17 16.7909 17 19V21M23 21V19C23 16.7909 21.2091 15 19 15H18.75M14.7461 3.00793C14.8301 3.00267 14.9147 3 15 3C17.2091 3 19 4.79086 19 7C19 9.20914 17.2091 11 15 11C14.9147 11 14.8301 10.9973 14.7461 10.9921M13 7C13 9.20914 11.2091 11 9 11C6.79086 11 5 9.20914 5 7C5 4.79086 6.79086 3 9 3C11.2091 3 13 4.79086 13 7Z" stroke="#817D8F" stroke-width="2" stroke-linecap="round"></path>
    </g>
  </symbol>
  <symbol fill="none" xmlns="http://www.w3.org/2000/svg" viewBox="0 0 24 24" id="settings">
    <g id="outline-settings-02">
      <g id="icon">
        <path d="M21.5 10.0574C22.1712 11.2655 22.1712 12.7345 21.5 13.9426L18.7222 18.9426C18.0167 20.2124 16.6783 21 15.2256 21H8.77778C7.32511 21 5.98663 20.2124 5.28115 18.9426L2.50337 13.9426C1.83221 12.7345 1.83221 11.2655 2.50337 10.0574L5.28115 5.05743C5.98663 3.78757 7.32511 3 8.77778 3L15.2256 3C16.6783 3 18.0167 3.78757 18.7222 5.05743L21.5 10.0574Z" stroke="#817D8F" stroke-width="2"></path>
        <path d="M15.5 12C15.5 13.933 13.933 15.5 12 15.5C10.067 15.5 8.5 13.933 8.5 12C8.5 10.067 10.067 8.5 12 8.5C13.933 8.5 15.5 10.067 15.5 12Z" stroke="#817D8F" stroke-width="2"></path>
      </g>
    </g>
  </symbol>
  <symbol fill="none" xmlns="http://www.w3.org/2000/svg" viewBox="0 0 24 24" id="projects">
    <g id="duotone-document-01-note">
      <path id="icon_bg" opacity="0.1" fill-rule="evenodd" clip-rule="evenodd" d="M14 3.41421V7C14 7.55228 14.4477 8 15 8H18.5858L14 3.41421ZM3 6C3 3.23858 5.23858 1 8 1H14C14.2652 1 14.5196 1.10536 14.7071 1.29289L20.7071 7.29289C20.8946 7.48043 21 7.73478 21 8V18C21 20.7614 18.7614 23 16 23H8C5.23858 23 3 20.7614 3 18V6Z" fill="#817D8F"></path>
      <path id="icon" fill-rule="evenodd" clip-rule="evenodd" d="M8 3C6.34315 3 5 4.34315 5 6V18C5 19.6569 6.34315 21 8 21H16C17.6569 21 19 19.6569 19 18V9H16C14.3431 9 13 7.65685 13 6V3H8ZM15 4.41421L17.5858 7H16C15.4477 7 15 6.55228 15 6V4.41421ZM3 6C3 3.23858 5.23858 1 8 1H14C14.2652 1 14.5196 1.10536 14.7071 1.29289L20.7071 7.29289C20.8946 7.48043 21 7.73478 21 8V18C21 20.7614 18.7614 23 16 23H8C5.23858 23 3 20.7614 3 18V6ZM8 13C8 12.4477 8.44772 12 9 12H15C15.5523 12 16 12.4477 16 13C16 13.5523 15.5523 14 15 14H9C8.44772 14 8 13.5523 8 13ZM8 17C8 16.4477 8.44772 16 9 16H12C12.5523 16 13 16.4477 13 17C13 17.5523 12.5523 18 12 18H9C8.44772 18 8 17.5523 8 17Z" fill="#817D8F"></path>
    </g>
  </symbol>
  
  <symbol fill="none" xmlns="http://www.w3.org/2000/svg" viewBox="0 0 24 24" id="tasks">
    <g id="outline-list view-02">
      <path id="icon" d="M10 4H22M10 12H22M10 20H22M4 22C2.89543 22 2 21.1046 2 20C2 18.8954 2.89543 18 4 18C5.10457 18 6 18.8954 6 20C6 21.1046 5.10457 22 4 22ZM4 14C2.89543 14 2 13.1046 2 12C2 10.8954 2.89543 10 4 10C5.10457 10 6 10.8954 6 12C6 13.1046 5.10457 14 4 14ZM4 6C2.89543 6 2 5.10457 2 4C2 2.89543 2.89543 2 4 2C5.10457 2 6 2.89543 6 4C6 5.10457 5.10457 6 4 6Z" stroke="#817D8F" stroke-width="2" stroke-linecap="round" stroke-linejoin="round"></path>
    </g>
  </symbol>
  <symbol fill="none" xmlns="http://www.w3.org/2000/svg" viewBox="0 0 24 24" id="stories">
    <g id="outline-comban">
      <g id="icon">
        <path d="M2 4C2 2.89543 2.89543 2 4 2H8C9.10457 2 10 2.89543 10 4V12C10 13.1046 9.10457 14 8 14H4C2.89543 14 2 13.1046 2 12V4Z" stroke="#817D8F" stroke-width="2"></path>
        <path d="M14 4C14 2.89543 14.8954 2 16 2H20C21.1046 2 22 2.89543 22 4V20C22 21.1046 21.1046 22 20 22H16C14.8954 22 14 21.1046 14 20V4Z" stroke="#817D8F" stroke-width="2"></path>
      </g>
    </g>
  </symbol>

  <symbol fill="none" xmlns="http://www.w3.org/2000/svg" viewBox="0 0 24 24" id="support">
    <g id="outline-headphones-01">
      <path id="icon" d="M3 16V12C3 7.02944 7.02944 3 12 3C16.9706 3 21 7.02944 21 12V16M5 21C3.89543 21 3 20.1046 3 19V15C3 13.8954 3.89543 13 5 13C6.10457 13 7 13.8954 7 15V19C7 20.1046 6.10457 21 5 21ZM19 21C17.8954 21 17 20.1046 17 19V15C17 13.8954 17.8954 13 19 13C20.1046 13 21 13.8954 21 15V19C21 20.1046 20.1046 21 19 21Z" stroke="#817D8F" stroke-width="2" stroke-linejoin="round"></path>
    </g>
  </symbol>


</svg>