<svg width="0" height="0" class="hidden">
  <symbol xmlns="http://www.w3.org/2000/svg" viewBox="0 0 24 24" id="tasks">
    <path
      d="M3.636 1.044c-1.178.12-2.265 1.087-2.538 2.257-.085.364-.085 1.034 0 1.398.241 1.035 1.168 1.962 2.203 2.203.364.085 1.034.085 1.398 0 1.035-.241 1.962-1.168 2.203-2.203.085-.364.085-1.034 0-1.398-.192-.825-.841-1.617-1.639-2.001-.475-.228-1.034-.316-1.627-.256m.785 2.031c.367.166.577.504.577.925 0 .593-.405.998-.998.998S3.002 4.593 3.002 4s.405-.998.998-.998c.166 0 .318.026.421.073M9.8 3.044c-.358.07-.688.406-.755.766a.982.982 0 0 0 .798 1.151c.147.027 2.293.037 6.3.03 6.725-.012 6.191.01 6.507-.268a.976.976 0 0 0 0-1.446c-.316-.278.224-.256-6.55-.263-3.435-.003-6.199.01-6.3.03m-6.164 6c-1.178.12-2.262 1.084-2.539 2.257-.085.362-.085 1.031.001 1.398.242 1.035 1.168 1.962 2.203 2.203.364.085 1.034.085 1.398 0 1.035-.241 1.962-1.168 2.203-2.203.085-.364.085-1.034 0-1.398-.192-.825-.841-1.617-1.639-2.001-.475-.228-1.034-.316-1.627-.256m.785 2.031c.367.166.577.504.577.925 0 .593-.405.998-.998.998s-.998-.405-.998-.998.405-.998.998-.998c.166 0 .318.026.421.073m5.379-.031c-.358.07-.688.406-.755.766a.982.982 0 0 0 .798 1.151c.147.027 2.293.037 6.3.03 6.725-.012 6.191.01 6.507-.268a.976.976 0 0 0 0-1.446c-.316-.278.224-.256-6.55-.263-3.435-.003-6.199.01-6.3.03m-6.164 6c-1.178.12-2.262 1.084-2.539 2.257-.085.362-.085 1.031.001 1.398.242 1.035 1.168 1.962 2.203 2.203.364.085 1.034.085 1.398 0 1.035-.241 1.962-1.168 2.203-2.203.085-.364.085-1.034 0-1.398-.192-.825-.841-1.617-1.639-2.001-.475-.228-1.034-.316-1.627-.256m.785 2.031c.367.166.577.504.577.925 0 .593-.405.998-.998.998s-.998-.405-.998-.998.405-.998.998-.998c.166 0 .318.026.421.073m5.379-.031c-.358.07-.688.406-.755.766a.982.982 0 0 0 .798 1.151c.147.027 2.293.037 6.3.03 6.725-.012 6.191.01 6.507-.268a.976.976 0 0 0 0-1.446c-.316-.278.224-.256-6.55-.263-3.435-.003-6.199.01-6.3.03"
      fill-rule="evenodd"></path>
  </symbol>
  <symbol xmlns="http://www.w3.org/2000/svg" viewBox="0 0 20 20" id="support">
    <path
      d="M9.414.034a9.887 9.887 0 0 0-6.466 2.914C1.329 4.567.38 6.524.076 8.87c-.052.402-.058.845-.059 4.43 0 4.264-.003 4.188.168 4.679a2.992 2.992 0 0 0 2.213 1.94c.323.068.881.068 1.204 0a3.014 3.014 0 0 0 2.338-2.404c.033-.177.043-.768.043-2.515s-.01-2.338-.043-2.515c-.274-1.446-1.483-2.457-2.94-2.457-.332 0-.81.072-.941.143-.055.029-.059.005-.059-.345 0-.675.127-1.495.337-2.176a8 8 0 0 1 6.696-5.6 10.431 10.431 0 0 1 1.827-.016 8.015 8.015 0 0 1 6.502 4.801c.412.961.638 2.023.638 2.998 0 .343-.004.367-.059.338-.131-.071-.609-.143-.941-.143-1.457 0-2.666 1.011-2.94 2.457-.033.177-.043.768-.043 2.515 0 2.437.004 2.507.168 2.979a2.992 2.992 0 0 0 2.213 1.94c.323.068.881.068 1.204 0a3.014 3.014 0 0 0 2.338-2.404c.034-.183.043-1.061.043-4.215-.001-4.344.001-4.297-.199-5.282-.56-2.767-2.248-5.135-4.717-6.619C13.431.416 11.38-.079 9.414.034M3.45 12.091c.169.087.369.287.462.459.071.133.071.142.071 2.45 0 2.308 0 2.317-.071 2.45-.092.171-.292.37-.462.462-.193.103-.707.103-.9 0a1.303 1.303 0 0 1-.462-.462c-.071-.133-.071-.142-.071-2.45v-2.317l.074-.139c.125-.234.361-.434.609-.515.154-.05.605-.013.75.062m14 0c.169.087.369.287.462.459.071.133.071.142.071 2.45 0 2.308 0 2.317-.071 2.45-.092.171-.292.37-.462.462-.193.103-.707.103-.9 0a1.303 1.303 0 0 1-.462-.462c-.071-.133-.071-.142-.071-2.45v-2.317l.074-.139c.125-.234.361-.434.609-.515.154-.05.605-.013.75.062"
      fill-rule="evenodd"></path>
  </symbol>
  <symbol xmlns="http://www.w3.org/2000/svg" viewBox="0 0 24 24" id="stories">
    <path
      d="M3.636 1.041c-1.187.132-2.238 1.066-2.545 2.26-.066.26-.071.585-.071 4.699s.005 4.439.071 4.699a3.138 3.138 0 0 0 2.21 2.21c.253.064.506.071 2.699.071 2.193 0 2.446-.007 2.699-.071a3.138 3.138 0 0 0 2.21-2.21c.066-.26.071-.585.071-4.699s-.005-4.439-.071-4.699a3.16 3.16 0 0 0-1.645-2c-.567-.273-.558-.272-3.064-.283-1.243-.006-2.397.005-2.564.023m12 0c-1.187.132-2.238 1.066-2.545 2.26-.067.264-.071.744-.071 8.699s.004 8.435.071 8.699a3.138 3.138 0 0 0 2.21 2.21c.253.064.506.071 2.699.071 2.193 0 2.446-.007 2.699-.071a3.138 3.138 0 0 0 2.21-2.21c.067-.264.071-.744.071-8.699s-.004-8.435-.071-8.699a3.16 3.16 0 0 0-1.645-2c-.567-.273-.558-.272-3.064-.283-1.243-.006-2.397.005-2.564.023M8.421 3.075c.205.093.411.299.504.504.069.153.073.381.073 4.421s-.004 4.268-.073 4.421a1.099 1.099 0 0 1-.504.504c-.15.068-.318.073-2.421.073-2.103 0-2.271-.005-2.421-.073a1.099 1.099 0 0 1-.504-.504c-.069-.153-.073-.381-.073-4.421s.004-4.268.073-4.421c.093-.205.299-.411.504-.504.15-.068.318-.073 2.421-.073 2.103 0 2.271.005 2.421.073m12 0c.205.093.411.299.504.504.07.154.073.507.073 8.421s-.003 8.267-.073 8.421a1.099 1.099 0 0 1-.504.504c-.15.068-.318.073-2.421.073-2.103 0-2.271-.005-2.421-.073a1.099 1.099 0 0 1-.504-.504c-.07-.154-.073-.507-.073-8.421s.003-8.267.073-8.421c.093-.205.299-.411.504-.504.15-.068.318-.073 2.421-.073 2.103 0 2.271.005 2.421.073"
      fill-rule="evenodd"></path>
  </symbol>
  <symbol xmlns="http://www.w3.org/2000/svg" viewBox="0 0 22 20" id="settings">
    <path
      d="M7.342.037c-1.171.1-2.229.601-3.09 1.464a5.559 5.559 0 0 0-.591.699C3.454 2.515.793 7.286.523 7.828c-.344.69-.492 1.34-.492 2.164 0 .823.148 1.474.492 2.163.27.542 2.931 5.313 3.138 5.628.566.859 1.606 1.631 2.633 1.956.733.231.62.226 4.706.226 3.424 0 3.75-.005 4.07-.066a5.36 5.36 0 0 0 1.99-.821c.367-.242 1.03-.913 1.28-1.295.324-.493 3.126-5.558 3.276-5.921a4.95 4.95 0 0 0 0-3.74c-.15-.364-2.953-5.431-3.275-5.922-.251-.382-.914-1.052-1.281-1.295a5.376 5.376 0 0 0-1.257-.626c-.784-.263-.614-.253-4.565-.262-1.956-.005-3.709.004-3.896.02m7.288 1.981c.845.109 1.657.617 2.109 1.319.346.537 2.973 5.317 3.084 5.61.249.66.249 1.432 0 2.09-.105.277-2.627 4.87-3.053 5.559a3.026 3.026 0 0 1-2.14 1.369c-.365.048-6.895.048-7.26 0a2.992 2.992 0 0 1-2.121-1.351c-.231-.357-2.891-5.156-3.022-5.451-.161-.363-.221-.685-.221-1.171 0-.487.06-.808.221-1.172.132-.297 2.792-5.096 3.025-5.455.472-.73 1.261-1.238 2.087-1.346.336-.043 6.956-.044 7.291-.001M10.528 5.54a4.48 4.48 0 0 0-4.001 4.452c0 2.195 1.582 4.051 3.771 4.422.314.054 1.09.054 1.404 0 2.189-.371 3.771-2.227 3.771-4.422a4.461 4.461 0 0 0-2.034-3.749 4.561 4.561 0 0 0-2.911-.703m1.268 2.066a2.534 2.534 0 0 1 1.46 1.286c.189.393.244.642.244 1.1 0 .457-.055.707-.244 1.1a2.563 2.563 0 0 1-1.46 1.289c-.268.089-.355.1-.796.1-.441 0-.528-.011-.796-.1a2.563 2.563 0 0 1-1.46-1.289c-.189-.393-.244-.643-.244-1.1 0-.458.055-.707.244-1.1a2.529 2.529 0 0 1 1.782-1.374c.3-.064.936-.02 1.27.088" fill-rule="evenodd"></path>
  </symbol>
  <symbol xmlns="http://www.w3.org/2000/svg" viewBox="0 0 24 24" id="projects">
    <path
      d="M7.58 1.041a5.009 5.009 0 0 0-4.299 3.391c-.277.833-.261.358-.261 7.568 0 7.217-.017 6.734.264 7.576a5.012 5.012 0 0 0 3.148 3.143c.816.272.589.261 5.568.261 4.188 0 4.525-.005 4.86-.073 1.025-.206 1.845-.625 2.556-1.306.79-.756 1.268-1.636 1.491-2.741.068-.337.073-.701.073-5.7 0-4.403-.01-5.368-.055-5.5-.044-.13-.653-.76-3.2-3.311-2.276-2.281-3.195-3.176-3.325-3.24l-.18-.089-3.14-.005c-1.727-.003-3.302.009-3.5.026m5.431 3.689c.021 1.914.03 1.993.29 2.534a3.204 3.204 0 0 0 1.435 1.435c.541.26.62.269 2.534.29l1.73.019v4.698c0 5.295.017 4.979-.311 5.654-.158.326-.239.434-.567.762-.326.326-.438.41-.762.569-.658.324-.403.309-5.36.309-4.957 0-4.702.015-5.36-.309-.324-.159-.436-.243-.762-.569-.326-.326-.41-.438-.569-.762C4.979 18.689 5 19.192 5 12s-.021-6.689.309-7.36c.159-.324.243-.436.569-.762.325-.326.438-.41.762-.57.62-.305.549-.299 3.626-.304L12.992 3l.019 1.73m3.679 2.261c-1.027.013-1.13-.006-1.39-.259-.281-.273-.298-.353-.299-1.412L15 4.38l1.3 1.3 1.301 1.3-.911.011M8.8 12.043a1.02 1.02 0 0 0-.755.767.982.982 0 0 0 .802 1.151c.147.027 1.3.038 3.3.03 3.391-.012 3.195.003 3.503-.268a.976.976 0 0 0 0-1.446c-.309-.271-.105-.256-3.55-.263-1.716-.004-3.201.01-3.3.029m0 4c-.099.02-.251.086-.339.148a.974.974 0 0 0 .392 1.771c.147.027.808.038 1.8.031 1.545-.013 1.57-.014 1.755-.106a.964.964 0 0 0 .56-.887.964.964 0 0 0-.56-.887c-.186-.092-.201-.093-1.808-.1-.891-.004-1.701.01-1.8.03" fill-rule="evenodd"></path>
  </symbol>
  <symbol xmlns="http://www.w3.org/2000/svg" viewBox="0 0 24 20" id="members">
    <path
      d="M8.34.046a4.934 4.934 0 0 0-1.52.471C5.374 1.226 4.39 2.51 4.075 4.1c-.073.368-.073 1.432 0 1.8A5.076 5.076 0 0 0 8.1 9.925c.368.073 1.432.073 1.8 0 1.823-.361 3.291-1.652 3.853-3.386.187-.578.227-.859.225-1.579-.002-.579-.015-.713-.109-1.091-.191-.765-.495-1.396-.943-1.957A5.04 5.04 0 0 0 8.34.046m6.129.011a.983.983 0 0 0-.708.96.88.88 0 0 0 .315.715c.235.212.315.236.904.27.632.037.816.079 1.28.296.657.308 1.131.78 1.444 1.442a2.873 2.873 0 0 1 0 2.52C17.185 7.357 16.162 8 14.936 8c-.438 0-.614.053-.844.255a.88.88 0 0 0-.331.725.974.974 0 0 0 .718.967c.267.078 1.057.055 1.515-.044 1.786-.386 3.206-1.657 3.759-3.364.187-.578.227-.859.225-1.579-.002-.579-.015-.713-.109-1.091-.386-1.547-1.333-2.709-2.765-3.393-.82-.391-2.025-.583-2.635-.419m-4.713 2.04c.337.092.839.35 1.117.574C11.554 3.219 12 4.14 12 5c0 1.17-.775 2.329-1.849 2.766-1.509.614-3.162-.032-3.853-1.506-.226-.481-.277-.714-.277-1.26s.051-.779.277-1.26a3.033 3.033 0 0 1 2.205-1.7c.267-.049.988-.016 1.253.057M4.34 12.046a4.934 4.934 0 0 0-1.52.471c-1.414.694-2.347 1.881-2.725 3.47-.083.348-.129 3.017-.057 3.284.063.234.271.488.493.603.505.26 1.112.07 1.355-.424.091-.185.095-.228.118-1.59.027-1.55.032-1.583.308-2.156a3.15 3.15 0 0 1 .768-1.002c.248-.213.908-.547 1.24-.628.177-.044 1.086-.054 4.68-.054 4.949 0 4.632-.017 5.26.278a2.905 2.905 0 0 1 1.444 1.442c.261.551.296.815.296 2.214 0 .694.018 1.248.042 1.335.099.358.48.664.875.702.437.042.883-.248 1.021-.665.061-.185.067-.363.052-1.637-.017-1.388-.02-1.441-.124-1.841-.26-1.011-.725-1.808-1.457-2.495a5.095 5.095 0 0 0-2.808-1.311c-.42-.052-8.854-.048-9.261.004m14.14-.009c-.863.263-.978 1.441-.18 1.853.125.064.275.089.68.113.634.037.818.079 1.28.295.657.308 1.131.78 1.444 1.442.261.551.296.815.296 2.214 0 .694.018 1.248.042 1.335.099.358.48.664.875.702.437.042.883-.248 1.021-.665.061-.185.067-.363.052-1.637-.017-1.388-.02-1.441-.124-1.841-.26-1.011-.725-1.808-1.457-2.495a5.095 5.095 0 0 0-2.808-1.311c-.386-.048-.972-.05-1.121-.005"
      fill-rule="evenodd"></path>

  </symbol>


  <symbol xmlns="http://www.w3.org/2000/svg" viewBox="0 0 24 24" id="log-out">
   <path
      d="M10.789 2.044a.895.895 0 0 0-.517.308.969.969 0 0 0 .003 1.3c.08.088.226.198.325.244.177.083.237.084 3.6.104l3.42.02.32.113a3.11 3.11 0 0 1 1.966 2.047c.07.228.074.508.074 5.82s-.004 5.592-.074 5.82a3.11 3.11 0 0 1-1.966 2.047l-.32.113-3.42.02c-3.363.02-3.423.021-3.6.104a.983.983 0 0 0-.325 1.548c.08.088.226.198.325.244.177.083.234.084 3.2.096 1.9.008 3.214-.004 3.544-.03 1.27-.104 2.306-.575 3.175-1.443.723-.724 1.131-1.488 1.37-2.567l.091-.412V6.46l-.091-.412c-.239-1.079-.647-1.843-1.37-2.567-.853-.853-1.892-1.332-3.119-1.44-.567-.05-6.399-.047-6.611.003m-4 4.999c-.084.02-.201.062-.26.094-.06.032-1.075 1.026-2.255 2.21C1.977 11.653 2.026 11.595 2.026 12c0 .405-.049.347 2.248 2.654 1.595 1.601 2.191 2.175 2.321 2.234.11.05.26.08.405.08.548 0 .964-.407.969-.948.003-.416-.001-.423-1.342-1.769l-1.244-1.25 5.419-.01c5.4-.011 5.419-.011 5.598-.095a.983.983 0 0 0 .325-1.548 1.232 1.232 0 0 0-.325-.244c-.179-.084-.198-.084-5.598-.095l-5.419-.01 1.244-1.25c1.342-1.348 1.345-1.352 1.342-1.772-.006-.608-.596-1.075-1.18-.934"
      fill-rule="evenodd" />
  </symbol>

  <symbol xmlns="http://www.w3.org/2000/svg" viewBox="0 0 24 24" id="chevron-right">
    <path
      d="M10.24 6.035c-.297.097-.552.32-.658.574-.079.19-.08.591-.001.782.043.103.745.833 2.29 2.379L14.1 12l-2.229 2.23c-1.545 1.546-2.247 2.276-2.29 2.379-.079.191-.078.592.001.782.079.189.272.392.478.501.224.12.657.12.88 0 .237-.128 5.4-5.311 5.478-5.501.08-.191.08-.591 0-.782-.079-.192-5.244-5.376-5.475-5.496-.171-.089-.544-.13-.703-.078"
      fill-rule="evenodd" />
  </symbol>
  <symbol xmlns="http://www.w3.org/2000/svg" viewBox="0 0 24 20" id="flag">
    <path fill-rule="evenodd" clip-rule="evenodd"
      d="M4 1C4.55228 1 5 1.44772 5 2V2.64216C5.15878 2.5976 5.32754 2.55189 5.50381 2.5064C6.52038 2.24406 7.88712 1.96176 9.03369 2.0004C10.5048 2.04999 11.5652 2.62582 12.4333 3.09719C12.4479 3.10514 12.4625 3.11306 12.477 3.12095C13.3666 3.60379 14.0611 3.96762 15.0337 4.0004C15.8773 4.02884 17.0105 3.81114 17.9964 3.55672C18.4759 3.43298 18.8967 3.30697 19.1973 3.21199C19.3473 3.1646 19.4666 3.12516 19.5474 3.09793C19.5878 3.08432 19.6185 3.07377 19.6386 3.06682L19.6606 3.05917L19.6654 3.05749C19.9714 2.94904 20.3118 2.99572 20.577 3.18309C20.8423 3.37049 21 3.67505 21 3.99984V14.9998C21 15.4233 20.7333 15.8009 20.3342 15.9424L20.3303 15.9437L20.322 15.9466L20.2928 15.9568C20.2678 15.9654 20.232 15.9778 20.1862 15.9932C20.0946 16.024 19.9632 16.0675 19.7999 16.119C19.4739 16.2221 19.018 16.3586 18.4962 16.4933C17.4796 16.7556 16.1129 17.0379 14.9663 16.9993C13.4952 16.9497 12.4348 16.3739 11.5667 15.9025C11.5521 15.8945 11.5375 15.8866 11.523 15.8787C10.6334 15.3959 9.9389 15.0321 8.96631 14.9993C8.12272 14.9708 6.98946 15.1885 6.00357 15.443C5.62139 15.5416 5.27646 15.6417 5 15.7263V21.9998C5 22.5521 4.55228 22.9998 4 22.9998C3.44772 22.9998 3 22.5521 3 21.9998V2C3 1.44772 3.44772 1 4 1Z" />
  </symbol>
  <symbol xmlns="http://www.w3.org/2000/svg" viewBox="0 0 24 24" id="check">
    <path
      d="M19.642 6.269c-.194.069-.063-.057-6.58 6.342l-3.239 3.18-.747-.726a808.896 808.896 0 0 1-2.603-2.55c-1.206-1.185-1.919-1.857-2.035-1.917-.241-.125-.629-.128-.863-.007-.381.197-.556.487-.553.912.002.233.022.317.109.466.059.1.465.53.903.956.437.426 1.65 1.614 2.694 2.639 1.771 1.74 1.918 1.874 2.201 2.014a1.946 1.946 0 0 0 1.788-.002c.274-.135.405-.25 1.363-1.195.583-.575 2.617-2.572 4.52-4.437 4.456-4.368 4.26-4.168 4.338-4.429.12-.405.042-.728-.244-1.015a.988.988 0 0 0-1.052-.231"
      fill-rule="evenodd" />
  </symbol>

   <symbol xmlns="http://www.w3.org/2000/svg" viewBox="0 0 24 24" id="three-dots">
    <path
      d="M7 12C7 13.1046 6.10457 14 5 14C3.89543 14 3 13.1046 3 12C3 10.8954 3.89543 10 5 10C6.10457 10 7 10.8954 7 12Z" />
    <path
      d="M14 12C14 13.1046 13.1046 14 12 14C10.8954 14 10 13.1046 10 12C10 10.8954 10.8954 10 12 10C13.1046 10 14 10.8954 14 12Z" />
    <path
      d="M21 12C21 13.1046 20.1046 14 19 14C17.8954 14 17 13.1046 17 12C17 10.8954 17.8954 10 19 10C20.1046 10 21 10.8954 21 12Z" />
  </symbol>
  <symbol xmlns="http://www.w3.org/2000/svg" viewBox="0 0 24 24" id="edit">
    <path fill-rule="evenodd" clip-rule="evenodd"
      d="M17.5633 2.43662C16.9812 1.85446 16.0373 1.85446 15.4552 2.43662L2.5128 15.379C2.47855 15.4132 2.4552 15.4568 2.4457 15.5043L2.0054 17.7058C1.97107 17.8775 2.12243 18.0289 2.29411 17.9945L4.49561 17.5542C4.5431 17.5447 4.58673 17.5214 4.62098 17.4871L17.5633 4.5448C18.1455 3.96264 18.1455 3.01878 17.5633 2.43662ZM14.0409 1.0224C15.4041 -0.340801 17.6143 -0.340802 18.9775 1.0224C20.3407 2.38561 20.3407 4.5958 18.9775 5.95901L6.03519 18.9014C5.72174 19.2148 5.32252 19.4285 4.88784 19.5154L2.68634 19.9557C1.11522 20.2699 -0.269983 18.8847 0.0442412 17.3136L0.484542 15.1121C0.571478 14.6774 0.785136 14.2782 1.09859 13.9648L14.0409 1.0224Z" />
  </symbol>
  <symbol xmlns="http://www.w3.org/2000/svg" viewBox="0 0 24 24" id="delete">
    <path fill-rule="evenodd" clip-rule="evenodd"
      d="M6 2C6 0.895431 6.89543 0 8 0H10C11.1046 0 12 0.895431 12 2H16.5C17.3284 2 18 2.67157 18 3.5C18 4.32843 17.3284 5 16.5 5H16V15C16 17.7614 13.7614 20 11 20H7C4.23858 20 2 17.7614 2 15V5H1.5C0.671573 5 0 4.32843 0 3.5C0 2.67157 0.671573 2 1.5 2H6ZM4 5V15C4 16.6569 5.34315 18 7 18H11C12.6569 18 14 16.6569 14 15V5H4ZM7 7C7.55228 7 8 7.44772 8 8V15C8 15.5523 7.55228 16 7 16C6.44772 16 6 15.5523 6 15V8C6 7.44772 6.44772 7 7 7ZM11 7C11.5523 7 12 7.44772 12 8V15C12 15.5523 11.5523 16 11 16C10.4477 16 10 15.5523 10 15V8C10 7.44772 10.4477 7 11 7Z" />
  </symbol>
  <symbol xmlns="http://www.w3.org/2000/svg" viewBox="0 0 24 24" id="chevron-down">
    <path
      d="m7 9.5-.7.7 2.85 2.85L12 15.9l2.85-2.85 2.85-2.85-.7-.7-.699-.7-2.151 2.15L12 13.1l-2.15-2.15L7.699 8.8 7 9.5"
      fill-rule="evenodd" />
  </symbol>

  <symbol xmlns="http://www.w3.org/2000/svg" viewBox="0 0 24 24" id="calendar">
    <path
      d="M7 1C7 0.447715 6.55228 0 6 0C5.44772 0 5 0.447715 5 1H7ZM5 4C5 4.55228 5.44772 5 6 5C6.55228 5 7 4.55228 7 4H5ZM17 1C17 0.447715 16.5523 0 16 0C15.4477 0 15 0.447715 15 1H17ZM15 4C15 4.55228 15.4477 5 16 5C16.5523 5 17 4.55228 17 4H15ZM3.18404 20.564L3.63803 19.673L3.18404 20.564ZM1.43597 18.816L2.32698 18.362L1.43597 18.816ZM20.564 18.816L19.673 18.362L20.564 18.816ZM18.816 20.564L18.362 19.673L18.816 20.564ZM18.816 3.43597L18.362 4.32698L18.816 3.43597ZM20.564 5.18404L19.673 5.63803L20.564 5.18404ZM3.18404 3.43597L3.63803 4.32698L3.18404 3.43597ZM1.43597 5.18404L2.32698 5.63803L1.43597 5.18404ZM5 1V4H7V1H5ZM15 1V4H17V1H15ZM7.4 4H14.6V2H7.4V4ZM20 9.4V14.6H22V9.4H20ZM14.6 20H7.4V22H14.6V20ZM2 14.6V9.4H0V14.6H2ZM7.4 20C6.26339 20 5.47108 19.9992 4.85424 19.9488C4.24907 19.8994 3.90138 19.8072 3.63803 19.673L2.73005 21.455C3.32234 21.7568 3.96253 21.8826 4.69138 21.9422C5.40855 22.0008 6.2964 22 7.4 22V20ZM0 14.6C0 15.7036 -0.000777721 16.5914 0.0578178 17.3086C0.117367 18.0375 0.24318 18.6777 0.544967 19.27L2.32698 18.362C2.19279 18.0986 2.10062 17.7509 2.05118 17.1458C2.00078 16.5289 2 15.7366 2 14.6H0ZM3.63803 19.673C3.07354 19.3854 2.6146 18.9265 2.32698 18.362L0.544967 19.27C1.02433 20.2108 1.78924 20.9757 2.73005 21.455L3.63803 19.673ZM20 14.6C20 15.7366 19.9992 16.5289 19.9488 17.1458C19.8994 17.7509 19.8072 18.0986 19.673 18.362L21.455 19.27C21.7568 18.6777 21.8826 18.0375 21.9422 17.3086C22.0008 16.5914 22 15.7036 22 14.6H20ZM14.6 22C15.7036 22 16.5914 22.0008 17.3086 21.9422C18.0375 21.8826 18.6777 21.7568 19.27 21.455L18.362 19.673C18.0986 19.8072 17.7509 19.8994 17.1458 19.9488C16.5289 19.9992 15.7366 20 14.6 20V22ZM19.673 18.362C19.3854 18.9265 18.9265 19.3854 18.362 19.673L19.27 21.455C20.2108 20.9757 20.9757 20.2108 21.455 19.27L19.673 18.362ZM14.6 4C15.7366 4 16.5289 4.00078 17.1458 4.05118C17.7509 4.10062 18.0986 4.19279 18.362 4.32698L19.27 2.54497C18.6777 2.24318 18.0375 2.11737 17.3086 2.05782C16.5914 1.99922 15.7036 2 14.6 2V4ZM22 9.4C22 8.2964 22.0008 7.40855 21.9422 6.69138C21.8826 5.96253 21.7568 5.32234 21.455 4.73005L19.673 5.63803C19.8072 5.90138 19.8994 6.24907 19.9488 6.85424C19.9992 7.47108 20 8.26339 20 9.4H22ZM18.362 4.32698C18.9265 4.6146 19.3854 5.07354 19.673 5.63803L21.455 4.73005C20.9757 3.78924 20.2108 3.02433 19.27 2.54497L18.362 4.32698ZM7.4 2C6.2964 2 5.40855 1.99922 4.69138 2.05782C3.96253 2.11737 3.32234 2.24318 2.73005 2.54497L3.63803 4.32698C3.90138 4.19279 4.24907 4.10062 4.85424 4.05118C5.47108 4.00078 6.26339 4 7.4 4V2ZM2 9.4C2 8.26339 2.00078 7.47108 2.05118 6.85424C2.10062 6.24907 2.19279 5.90138 2.32698 5.63803L0.544967 4.73005C0.24318 5.32234 0.117367 5.96253 0.0578178 6.69138C-0.000777721 7.40855 0 8.2964 0 9.4H2ZM2.73005 2.54497C1.78924 3.02433 1.02433 3.78924 0.544967 4.73005L2.32698 5.63803C2.6146 5.07354 3.07354 4.6146 3.63803 4.32698L2.73005 2.54497ZM1 8H21V6H1V8ZM14 14H16V12H14V14ZM16 14V16H18V14H16ZM16 16H14V18H16V16ZM14 16V14H12V16H14ZM14 16H12C12 17.1046 12.8954 18 14 18V16ZM16 16V18C17.1046 18 18 17.1046 18 16H16ZM16 14H18C18 12.8954 17.1046 12 16 12V14ZM14 12C12.8954 12 12 12.8954 12 14H14V12Z" />
  </symbol>

  <symbol xmlns="http://www.w3.org/2000/svg" viewBox="0 0 24 24" id="check-sharp">
    <path
      d="M14.560 10.937 L 9.820 15.595 9.240 15.027 C 8.921 14.715,7.781 13.595,6.706 12.540 C 5.632 11.484,4.729 10.620,4.700 10.620 C 4.672 10.620,4.346 10.932,3.978 11.313 L 3.307 12.006 3.623 12.320 C 3.797 12.493,5.263 13.932,6.879 15.517 L 9.819 18.400 10.239 17.984 C 10.471 17.755,12.910 15.360,15.660 12.662 C 18.410 9.963,20.664 7.742,20.668 7.727 C 20.673 7.712,20.367 7.380,19.988 6.990 L 19.300 6.280 14.560 10.937 "
      fill-rule="evenodd"></path>
  </symbol>
  <symbol xmlns="http://www.w3.org/2000/svg" viewBox="0 0 24 24" id="minus-sharp">
    <path
      d="M4.000 12.000 L 4.000 13.000 12.000 13.000 L 20.000 13.000 20.000 12.000 L 20.000 11.000 12.000 11.000 L 4.000 11.000 4.000 12.000 "
      stroke="none" fill-rule="evenodd"></path>
  </symbol>
  <symbol xmlns="http://www.w3.org/2000/svg" viewBox="0 0 24 24" id="minus">
    <path
      d="M4.673 11.063 C 4.310 11.175,4.000 11.606,4.000 12.000 C 4.000 12.405,4.309 12.826,4.690 12.939 C 4.870 12.993,5.755 13.000,12.000 13.000 C 18.245 13.000,19.130 12.993,19.310 12.939 C 19.688 12.827,20.000 12.402,20.000 12.000 C 20.000 11.598,19.688 11.173,19.310 11.061 C 19.009 10.971,4.964 10.974,4.673 11.063 "
      fill-rule="evenodd"></path>
  </symbol>

   <symbol xmlns="http://www.w3.org/2000/svg" viewBox="0 0 24 24" id="info-in-circle">
    <path fill-rule="evenodd" clip-rule="evenodd"
      d="M10 0C15.5228 0 20 4.47715 20 10C20 15.5228 15.5228 20 10 20C4.47715 20 0 15.5228 0 10C0 4.47715 4.47715 0 10 0ZM11 15C11 15.5523 10.5523 16 10 16C9.44771 16 9 15.5523 9 15V9C9 8.44772 9.44771 8 10 8C10.5523 8 11 8.44772 11 9V15ZM11 5C11 5.55229 10.5523 6 10 6C9.44771 6 9 5.55229 9 5V4.99C9 4.43771 9.44771 3.99 10 3.99C10.5523 3.99 11 4.43771 11 4.99V5Z" />
  </symbol>
  <symbol xmlns="http://www.w3.org/2000/svg" viewBox="0 0 24 24" id="check-in-circle">
    <path fill-rule="evenodd" clip-rule="evenodd"
      d="M10 20C15.5228 20 20 15.5228 20 10C20 4.47715 15.5228 0 10 0C4.47715 0 0 4.47715 0 10C0 15.5228 4.47715 20 10 20ZM14.7071 8.10701C15.0976 7.71649 15.0976 7.08332 14.7071 6.6928C14.3166 6.30227 13.6834 6.30227 13.2929 6.6928L8.66667 11.319L6.70711 9.35946C6.31658 8.96894 5.68342 8.96894 5.29289 9.35946C4.90237 9.74999 4.90237 10.3832 5.29289 10.7737L7.95956 13.4403C8.1471 13.6279 8.40145 13.7332 8.66667 13.7332C8.93188 13.7332 9.18624 13.6279 9.37377 13.4403L14.7071 8.10701Z"
      fill="#080317" />
  </symbol>

</svg>