<svg width="0" height="0" class="hidden">
  <symbol xmlns="http://www.w3.org/2000/svg" viewBox="0 0 24 24" id="tasks">
    <path
      d="M3.636 1.044c-1.178.12-2.265 1.087-2.538 2.257-.085.364-.085 1.034 0 1.398.241 1.035 1.168 1.962 2.203 2.203.364.085 1.034.085 1.398 0 1.035-.241 1.962-1.168 2.203-2.203.085-.364.085-1.034 0-1.398-.192-.825-.841-1.617-1.639-2.001-.475-.228-1.034-.316-1.627-.256m.785 2.031c.367.166.577.504.577.925 0 .593-.405.998-.998.998S3.002 4.593 3.002 4s.405-.998.998-.998c.166 0 .318.026.421.073M9.8 3.044c-.358.07-.688.406-.755.766a.982.982 0 0 0 .798 1.151c.147.027 2.293.037 6.3.03 6.725-.012 6.191.01 6.507-.268a.976.976 0 0 0 0-1.446c-.316-.278.224-.256-6.55-.263-3.435-.003-6.199.01-6.3.03m-6.164 6c-1.178.12-2.262 1.084-2.539 2.257-.085.362-.085 1.031.001 1.398.242 1.035 1.168 1.962 2.203 2.203.364.085 1.034.085 1.398 0 1.035-.241 1.962-1.168 2.203-2.203.085-.364.085-1.034 0-1.398-.192-.825-.841-1.617-1.639-2.001-.475-.228-1.034-.316-1.627-.256m.785 2.031c.367.166.577.504.577.925 0 .593-.405.998-.998.998s-.998-.405-.998-.998.405-.998.998-.998c.166 0 .318.026.421.073m5.379-.031c-.358.07-.688.406-.755.766a.982.982 0 0 0 .798 1.151c.147.027 2.293.037 6.3.03 6.725-.012 6.191.01 6.507-.268a.976.976 0 0 0 0-1.446c-.316-.278.224-.256-6.55-.263-3.435-.003-6.199.01-6.3.03m-6.164 6c-1.178.12-2.262 1.084-2.539 2.257-.085.362-.085 1.031.001 1.398.242 1.035 1.168 1.962 2.203 2.203.364.085 1.034.085 1.398 0 1.035-.241 1.962-1.168 2.203-2.203.085-.364.085-1.034 0-1.398-.192-.825-.841-1.617-1.639-2.001-.475-.228-1.034-.316-1.627-.256m.785 2.031c.367.166.577.504.577.925 0 .593-.405.998-.998.998s-.998-.405-.998-.998.405-.998.998-.998c.166 0 .318.026.421.073m5.379-.031c-.358.07-.688.406-.755.766a.982.982 0 0 0 .798 1.151c.147.027 2.293.037 6.3.03 6.725-.012 6.191.01 6.507-.268a.976.976 0 0 0 0-1.446c-.316-.278.224-.256-6.55-.263-3.435-.003-6.199.01-6.3.03"
      fill-rule="evenodd"></path>
  </symbol>
  <symbol xmlns="http://www.w3.org/2000/svg" viewBox="0 0 20 20" id="support">
    <path
      d="M9.414.034a9.887 9.887 0 0 0-6.466 2.914C1.329 4.567.38 6.524.076 8.87c-.052.402-.058.845-.059 4.43 0 4.264-.003 4.188.168 4.679a2.992 2.992 0 0 0 2.213 1.94c.323.068.881.068 1.204 0a3.014 3.014 0 0 0 2.338-2.404c.033-.177.043-.768.043-2.515s-.01-2.338-.043-2.515c-.274-1.446-1.483-2.457-2.94-2.457-.332 0-.81.072-.941.143-.055.029-.059.005-.059-.345 0-.675.127-1.495.337-2.176a8 8 0 0 1 6.696-5.6 10.431 10.431 0 0 1 1.827-.016 8.015 8.015 0 0 1 6.502 4.801c.412.961.638 2.023.638 2.998 0 .343-.004.367-.059.338-.131-.071-.609-.143-.941-.143-1.457 0-2.666 1.011-2.94 2.457-.033.177-.043.768-.043 2.515 0 2.437.004 2.507.168 2.979a2.992 2.992 0 0 0 2.213 1.94c.323.068.881.068 1.204 0a3.014 3.014 0 0 0 2.338-2.404c.034-.183.043-1.061.043-4.215-.001-4.344.001-4.297-.199-5.282-.56-2.767-2.248-5.135-4.717-6.619C13.431.416 11.38-.079 9.414.034M3.45 12.091c.169.087.369.287.462.459.071.133.071.142.071 2.45 0 2.308 0 2.317-.071 2.45-.092.171-.292.37-.462.462-.193.103-.707.103-.9 0a1.303 1.303 0 0 1-.462-.462c-.071-.133-.071-.142-.071-2.45v-2.317l.074-.139c.125-.234.361-.434.609-.515.154-.05.605-.013.75.062m14 0c.169.087.369.287.462.459.071.133.071.142.071 2.45 0 2.308 0 2.317-.071 2.45-.092.171-.292.37-.462.462-.193.103-.707.103-.9 0a1.303 1.303 0 0 1-.462-.462c-.071-.133-.071-.142-.071-2.45v-2.317l.074-.139c.125-.234.361-.434.609-.515.154-.05.605-.013.75.062"
      fill-rule="evenodd"></path>
  </symbol>
  <symbol xmlns="http://www.w3.org/2000/svg" viewBox="0 0 24 24" id="stories">
    <path
      d="M3.636 1.041c-1.187.132-2.238 1.066-2.545 2.26-.066.26-.071.585-.071 4.699s.005 4.439.071 4.699a3.138 3.138 0 0 0 2.21 2.21c.253.064.506.071 2.699.071 2.193 0 2.446-.007 2.699-.071a3.138 3.138 0 0 0 2.21-2.21c.066-.26.071-.585.071-4.699s-.005-4.439-.071-4.699a3.16 3.16 0 0 0-1.645-2c-.567-.273-.558-.272-3.064-.283-1.243-.006-2.397.005-2.564.023m12 0c-1.187.132-2.238 1.066-2.545 2.26-.067.264-.071.744-.071 8.699s.004 8.435.071 8.699a3.138 3.138 0 0 0 2.21 2.21c.253.064.506.071 2.699.071 2.193 0 2.446-.007 2.699-.071a3.138 3.138 0 0 0 2.21-2.21c.067-.264.071-.744.071-8.699s-.004-8.435-.071-8.699a3.16 3.16 0 0 0-1.645-2c-.567-.273-.558-.272-3.064-.283-1.243-.006-2.397.005-2.564.023M8.421 3.075c.205.093.411.299.504.504.069.153.073.381.073 4.421s-.004 4.268-.073 4.421a1.099 1.099 0 0 1-.504.504c-.15.068-.318.073-2.421.073-2.103 0-2.271-.005-2.421-.073a1.099 1.099 0 0 1-.504-.504c-.069-.153-.073-.381-.073-4.421s.004-4.268.073-4.421c.093-.205.299-.411.504-.504.15-.068.318-.073 2.421-.073 2.103 0 2.271.005 2.421.073m12 0c.205.093.411.299.504.504.07.154.073.507.073 8.421s-.003 8.267-.073 8.421a1.099 1.099 0 0 1-.504.504c-.15.068-.318.073-2.421.073-2.103 0-2.271-.005-2.421-.073a1.099 1.099 0 0 1-.504-.504c-.07-.154-.073-.507-.073-8.421s.003-8.267.073-8.421c.093-.205.299-.411.504-.504.15-.068.318-.073 2.421-.073 2.103 0 2.271.005 2.421.073"
      fill-rule="evenodd"></path>
  </symbol>
  <symbol xmlns="http://www.w3.org/2000/svg" viewBox="0 0 22 20" id="settings">
    <path
      d="M7.342.037c-1.171.1-2.229.601-3.09 1.464a5.559 5.559 0 0 0-.591.699C3.454 2.515.793 7.286.523 7.828c-.344.69-.492 1.34-.492 2.164 0 .823.148 1.474.492 2.163.27.542 2.931 5.313 3.138 5.628.566.859 1.606 1.631 2.633 1.956.733.231.62.226 4.706.226 3.424 0 3.75-.005 4.07-.066a5.36 5.36 0 0 0 1.99-.821c.367-.242 1.03-.913 1.28-1.295.324-.493 3.126-5.558 3.276-5.921a4.95 4.95 0 0 0 0-3.74c-.15-.364-2.953-5.431-3.275-5.922-.251-.382-.914-1.052-1.281-1.295a5.376 5.376 0 0 0-1.257-.626c-.784-.263-.614-.253-4.565-.262-1.956-.005-3.709.004-3.896.02m7.288 1.981c.845.109 1.657.617 2.109 1.319.346.537 2.973 5.317 3.084 5.61.249.66.249 1.432 0 2.09-.105.277-2.627 4.87-3.053 5.559a3.026 3.026 0 0 1-2.14 1.369c-.365.048-6.895.048-7.26 0a2.992 2.992 0 0 1-2.121-1.351c-.231-.357-2.891-5.156-3.022-5.451-.161-.363-.221-.685-.221-1.171 0-.487.06-.808.221-1.172.132-.297 2.792-5.096 3.025-5.455.472-.73 1.261-1.238 2.087-1.346.336-.043 6.956-.044 7.291-.001M10.528 5.54a4.48 4.48 0 0 0-4.001 4.452c0 2.195 1.582 4.051 3.771 4.422.314.054 1.09.054 1.404 0 2.189-.371 3.771-2.227 3.771-4.422a4.461 4.461 0 0 0-2.034-3.749 4.561 4.561 0 0 0-2.911-.703m1.268 2.066a2.534 2.534 0 0 1 1.46 1.286c.189.393.244.642.244 1.1 0 .457-.055.707-.244 1.1a2.563 2.563 0 0 1-1.46 1.289c-.268.089-.355.1-.796.1-.441 0-.528-.011-.796-.1a2.563 2.563 0 0 1-1.46-1.289c-.189-.393-.244-.643-.244-1.1 0-.458.055-.707.244-1.1a2.529 2.529 0 0 1 1.782-1.374c.3-.064.936-.02 1.27.088" fill-rule="evenodd"></path>
  </symbol>
  <symbol xmlns="http://www.w3.org/2000/svg" viewBox="0 0 24 24" id="projects">
    <path
      d="M7.58 1.041a5.009 5.009 0 0 0-4.299 3.391c-.277.833-.261.358-.261 7.568 0 7.217-.017 6.734.264 7.576a5.012 5.012 0 0 0 3.148 3.143c.816.272.589.261 5.568.261 4.188 0 4.525-.005 4.86-.073 1.025-.206 1.845-.625 2.556-1.306.79-.756 1.268-1.636 1.491-2.741.068-.337.073-.701.073-5.7 0-4.403-.01-5.368-.055-5.5-.044-.13-.653-.76-3.2-3.311-2.276-2.281-3.195-3.176-3.325-3.24l-.18-.089-3.14-.005c-1.727-.003-3.302.009-3.5.026m5.431 3.689c.021 1.914.03 1.993.29 2.534a3.204 3.204 0 0 0 1.435 1.435c.541.26.62.269 2.534.29l1.73.019v4.698c0 5.295.017 4.979-.311 5.654-.158.326-.239.434-.567.762-.326.326-.438.41-.762.569-.658.324-.403.309-5.36.309-4.957 0-4.702.015-5.36-.309-.324-.159-.436-.243-.762-.569-.326-.326-.41-.438-.569-.762C4.979 18.689 5 19.192 5 12s-.021-6.689.309-7.36c.159-.324.243-.436.569-.762.325-.326.438-.41.762-.57.62-.305.549-.299 3.626-.304L12.992 3l.019 1.73m3.679 2.261c-1.027.013-1.13-.006-1.39-.259-.281-.273-.298-.353-.299-1.412L15 4.38l1.3 1.3 1.301 1.3-.911.011M8.8 12.043a1.02 1.02 0 0 0-.755.767.982.982 0 0 0 .802 1.151c.147.027 1.3.038 3.3.03 3.391-.012 3.195.003 3.503-.268a.976.976 0 0 0 0-1.446c-.309-.271-.105-.256-3.55-.263-1.716-.004-3.201.01-3.3.029m0 4c-.099.02-.251.086-.339.148a.974.974 0 0 0 .392 1.771c.147.027.808.038 1.8.031 1.545-.013 1.57-.014 1.755-.106a.964.964 0 0 0 .56-.887.964.964 0 0 0-.56-.887c-.186-.092-.201-.093-1.808-.1-.891-.004-1.701.01-1.8.03" fill-rule="evenodd"></path>
  </symbol>
  <symbol xmlns="http://www.w3.org/2000/svg" viewBox="0 0 24 20" id="members">
    <path
      d="M8.34.046a4.934 4.934 0 0 0-1.52.471C5.374 1.226 4.39 2.51 4.075 4.1c-.073.368-.073 1.432 0 1.8A5.076 5.076 0 0 0 8.1 9.925c.368.073 1.432.073 1.8 0 1.823-.361 3.291-1.652 3.853-3.386.187-.578.227-.859.225-1.579-.002-.579-.015-.713-.109-1.091-.191-.765-.495-1.396-.943-1.957A5.04 5.04 0 0 0 8.34.046m6.129.011a.983.983 0 0 0-.708.96.88.88 0 0 0 .315.715c.235.212.315.236.904.27.632.037.816.079 1.28.296.657.308 1.131.78 1.444 1.442a2.873 2.873 0 0 1 0 2.52C17.185 7.357 16.162 8 14.936 8c-.438 0-.614.053-.844.255a.88.88 0 0 0-.331.725.974.974 0 0 0 .718.967c.267.078 1.057.055 1.515-.044 1.786-.386 3.206-1.657 3.759-3.364.187-.578.227-.859.225-1.579-.002-.579-.015-.713-.109-1.091-.386-1.547-1.333-2.709-2.765-3.393-.82-.391-2.025-.583-2.635-.419m-4.713 2.04c.337.092.839.35 1.117.574C11.554 3.219 12 4.14 12 5c0 1.17-.775 2.329-1.849 2.766-1.509.614-3.162-.032-3.853-1.506-.226-.481-.277-.714-.277-1.26s.051-.779.277-1.26a3.033 3.033 0 0 1 2.205-1.7c.267-.049.988-.016 1.253.057M4.34 12.046a4.934 4.934 0 0 0-1.52.471c-1.414.694-2.347 1.881-2.725 3.47-.083.348-.129 3.017-.057 3.284.063.234.271.488.493.603.505.26 1.112.07 1.355-.424.091-.185.095-.228.118-1.59.027-1.55.032-1.583.308-2.156a3.15 3.15 0 0 1 .768-1.002c.248-.213.908-.547 1.24-.628.177-.044 1.086-.054 4.68-.054 4.949 0 4.632-.017 5.26.278a2.905 2.905 0 0 1 1.444 1.442c.261.551.296.815.296 2.214 0 .694.018 1.248.042 1.335.099.358.48.664.875.702.437.042.883-.248 1.021-.665.061-.185.067-.363.052-1.637-.017-1.388-.02-1.441-.124-1.841-.26-1.011-.725-1.808-1.457-2.495a5.095 5.095 0 0 0-2.808-1.311c-.42-.052-8.854-.048-9.261.004m14.14-.009c-.863.263-.978 1.441-.18 1.853.125.064.275.089.68.113.634.037.818.079 1.28.295.657.308 1.131.78 1.444 1.442.261.551.296.815.296 2.214 0 .694.018 1.248.042 1.335.099.358.48.664.875.702.437.042.883-.248 1.021-.665.061-.185.067-.363.052-1.637-.017-1.388-.02-1.441-.124-1.841-.26-1.011-.725-1.808-1.457-2.495a5.095 5.095 0 0 0-2.808-1.311c-.386-.048-.972-.05-1.121-.005"
      fill-rule="evenodd"></path>

  </symbol>

  <symbol xmlns="http://www.w3.org/2000/svg" viewBox="0 0 24 24" id="log-out">
   <path
      d="M10.789 2.044a.895.895 0 0 0-.517.308.969.969 0 0 0 .003 1.3c.08.088.226.198.325.244.177.083.237.084 3.6.104l3.42.02.32.113a3.11 3.11 0 0 1 1.966 2.047c.07.228.074.508.074 5.82s-.004 5.592-.074 5.82a3.11 3.11 0 0 1-1.966 2.047l-.32.113-3.42.02c-3.363.02-3.423.021-3.6.104a.983.983 0 0 0-.325 1.548c.08.088.226.198.325.244.177.083.234.084 3.2.096 1.9.008 3.214-.004 3.544-.03 1.27-.104 2.306-.575 3.175-1.443.723-.724 1.131-1.488 1.37-2.567l.091-.412V6.46l-.091-.412c-.239-1.079-.647-1.843-1.37-2.567-.853-.853-1.892-1.332-3.119-1.44-.567-.05-6.399-.047-6.611.003m-4 4.999c-.084.02-.201.062-.26.094-.06.032-1.075 1.026-2.255 2.21C1.977 11.653 2.026 11.595 2.026 12c0 .405-.049.347 2.248 2.654 1.595 1.601 2.191 2.175 2.321 2.234.11.05.26.08.405.08.548 0 .964-.407.969-.948.003-.416-.001-.423-1.342-1.769l-1.244-1.25 5.419-.01c5.4-.011 5.419-.011 5.598-.095a.983.983 0 0 0 .325-1.548 1.232 1.232 0 0 0-.325-.244c-.179-.084-.198-.084-5.598-.095l-5.419-.01 1.244-1.25c1.342-1.348 1.345-1.352 1.342-1.772-.006-.608-.596-1.075-1.18-.934"
      fill-rule="evenodd" />
  </symbol>

  <symbol xmlns="http://www.w3.org/2000/svg" viewBox="0 0 24 24" id="chevron-right">
    <path
      d="M10.24 6.035c-.297.097-.552.32-.658.574-.079.19-.08.591-.001.782.043.103.745.833 2.29 2.379L14.1 12l-2.229 2.23c-1.545 1.546-2.247 2.276-2.29 2.379-.079.191-.078.592.001.782.079.189.272.392.478.501.224.12.657.12.88 0 .237-.128 5.4-5.311 5.478-5.501.08-.191.08-.591 0-.782-.079-.192-5.244-5.376-5.475-5.496-.171-.089-.544-.13-.703-.078"
      fill-rule="evenodd" />
  </symbol>
  <symbol xmlns="http://www.w3.org/2000/svg" viewBox="0 0 24 20" id="flag">
    <path fill-rule="evenodd" clip-rule="evenodd"
      d="M4 1C4.55228 1 5 1.44772 5 2V2.64216C5.15878 2.5976 5.32754 2.55189 5.50381 2.5064C6.52038 2.24406 7.88712 1.96176 9.03369 2.0004C10.5048 2.04999 11.5652 2.62582 12.4333 3.09719C12.4479 3.10514 12.4625 3.11306 12.477 3.12095C13.3666 3.60379 14.0611 3.96762 15.0337 4.0004C15.8773 4.02884 17.0105 3.81114 17.9964 3.55672C18.4759 3.43298 18.8967 3.30697 19.1973 3.21199C19.3473 3.1646 19.4666 3.12516 19.5474 3.09793C19.5878 3.08432 19.6185 3.07377 19.6386 3.06682L19.6606 3.05917L19.6654 3.05749C19.9714 2.94904 20.3118 2.99572 20.577 3.18309C20.8423 3.37049 21 3.67505 21 3.99984V14.9998C21 15.4233 20.7333 15.8009 20.3342 15.9424L20.3303 15.9437L20.322 15.9466L20.2928 15.9568C20.2678 15.9654 20.232 15.9778 20.1862 15.9932C20.0946 16.024 19.9632 16.0675 19.7999 16.119C19.4739 16.2221 19.018 16.3586 18.4962 16.4933C17.4796 16.7556 16.1129 17.0379 14.9663 16.9993C13.4952 16.9497 12.4348 16.3739 11.5667 15.9025C11.5521 15.8945 11.5375 15.8866 11.523 15.8787C10.6334 15.3959 9.9389 15.0321 8.96631 14.9993C8.12272 14.9708 6.98946 15.1885 6.00357 15.443C5.62139 15.5416 5.27646 15.6417 5 15.7263V21.9998C5 22.5521 4.55228 22.9998 4 22.9998C3.44772 22.9998 3 22.5521 3 21.9998V2C3 1.44772 3.44772 1 4 1Z" />
  </symbol>
  <symbol xmlns="http://www.w3.org/2000/svg" viewBox="0 0 24 24" id="check">
    <path
      d="M19.642 6.269c-.194.069-.063-.057-6.58 6.342l-3.239 3.18-.747-.726a808.896 808.896 0 0 1-2.603-2.55c-1.206-1.185-1.919-1.857-2.035-1.917-.241-.125-.629-.128-.863-.007-.381.197-.556.487-.553.912.002.233.022.317.109.466.059.1.465.53.903.956.437.426 1.65 1.614 2.694 2.639 1.771 1.74 1.918 1.874 2.201 2.014a1.946 1.946 0 0 0 1.788-.002c.274-.135.405-.25 1.363-1.195.583-.575 2.617-2.572 4.52-4.437 4.456-4.368 4.26-4.168 4.338-4.429.12-.405.042-.728-.244-1.015a.988.988 0 0 0-1.052-.231"
      fill-rule="evenodd" />
  </symbol>

   <symbol xmlns="http://www.w3.org/2000/svg" viewBox="0 0 24 24" id="three-dots">
    <path
      d="M7 12C7 13.1046 6.10457 14 5 14C3.89543 14 3 13.1046 3 12C3 10.8954 3.89543 10 5 10C6.10457 10 7 10.8954 7 12Z" />
    <path
      d="M14 12C14 13.1046 13.1046 14 12 14C10.8954 14 10 13.1046 10 12C10 10.8954 10.8954 10 12 10C13.1046 10 14 10.8954 14 12Z" />
    <path
      d="M21 12C21 13.1046 20.1046 14 19 14C17.8954 14 17 13.1046 17 12C17 10.8954 17.8954 10 19 10C20.1046 10 21 10.8954 21 12Z" />
  </symbol>

  <symbol xmlns="http://www.w3.org/2000/svg" viewBox="0 0 24 24" id="edit">
    <path fill-rule="evenodd" clip-rule="evenodd"
      d="M17.5633 2.43662C16.9812 1.85446 16.0373 1.85446 15.4552 2.43662L2.5128 15.379C2.47855 15.4132 2.4552 15.4568 2.4457 15.5043L2.0054 17.7058C1.97107 17.8775 2.12243 18.0289 2.29411 17.9945L4.49561 17.5542C4.5431 17.5447 4.58673 17.5214 4.62098 17.4871L17.5633 4.5448C18.1455 3.96264 18.1455 3.01878 17.5633 2.43662ZM14.0409 1.0224C15.4041 -0.340801 17.6143 -0.340802 18.9775 1.0224C20.3407 2.38561 20.3407 4.5958 18.9775 5.95901L6.03519 18.9014C5.72174 19.2148 5.32252 19.4285 4.88784 19.5154L2.68634 19.9557C1.11522 20.2699 -0.269983 18.8847 0.0442412 17.3136L0.484542 15.1121C0.571478 14.6774 0.785136 14.2782 1.09859 13.9648L14.0409 1.0224Z" />
  </symbol>

  <symbol xmlns="http://www.w3.org/2000/svg" viewBox="0 0 24 24" id="delete">
    <path fill-rule="evenodd" clip-rule="evenodd"
      d="M6 2C6 0.895431 6.89543 0 8 0H10C11.1046 0 12 0.895431 12 2H16.5C17.3284 2 18 2.67157 18 3.5C18 4.32843 17.3284 5 16.5 5H16V15C16 17.7614 13.7614 20 11 20H7C4.23858 20 2 17.7614 2 15V5H1.5C0.671573 5 0 4.32843 0 3.5C0 2.67157 0.671573 2 1.5 2H6ZM4 5V15C4 16.6569 5.34315 18 7 18H11C12.6569 18 14 16.6569 14 15V5H4ZM7 7C7.55228 7 8 7.44772 8 8V15C8 15.5523 7.55228 16 7 16C6.44772 16 6 15.5523 6 15V8C6 7.44772 6.44772 7 7 7ZM11 7C11.5523 7 12 7.44772 12 8V15C12 15.5523 11.5523 16 11 16C10.4477 16 10 15.5523 10 15V8C10 7.44772 10.4477 7 11 7Z" />
  </symbol>
  <symbol xmlns="http://www.w3.org/2000/svg" viewBox="0 0 24 24" id="chevron-down">
    <path
      d="m7 9.5-.7.7 2.85 2.85L12 15.9l2.85-2.85 2.85-2.85-.7-.7-.699-.7-2.151 2.15L12 13.1l-2.15-2.15L7.699 8.8 7 9.5"
      fill-rule="evenodd" />
  </symbol>

  <symbol xmlns="http://www.w3.org/2000/svg" viewBox="0 0 24 24" id="calendar">
    <path
      d="M7 1C7 0.447715 6.55228 0 6 0C5.44772 0 5 0.447715 5 1H7ZM5 4C5 4.55228 5.44772 5 6 5C6.55228 5 7 4.55228 7 4H5ZM17 1C17 0.447715 16.5523 0 16 0C15.4477 0 15 0.447715 15 1H17ZM15 4C15 4.55228 15.4477 5 16 5C16.5523 5 17 4.55228 17 4H15ZM3.18404 20.564L3.63803 19.673L3.18404 20.564ZM1.43597 18.816L2.32698 18.362L1.43597 18.816ZM20.564 18.816L19.673 18.362L20.564 18.816ZM18.816 20.564L18.362 19.673L18.816 20.564ZM18.816 3.43597L18.362 4.32698L18.816 3.43597ZM20.564 5.18404L19.673 5.63803L20.564 5.18404ZM3.18404 3.43597L3.63803 4.32698L3.18404 3.43597ZM1.43597 5.18404L2.32698 5.63803L1.43597 5.18404ZM5 1V4H7V1H5ZM15 1V4H17V1H15ZM7.4 4H14.6V2H7.4V4ZM20 9.4V14.6H22V9.4H20ZM14.6 20H7.4V22H14.6V20ZM2 14.6V9.4H0V14.6H2ZM7.4 20C6.26339 20 5.47108 19.9992 4.85424 19.9488C4.24907 19.8994 3.90138 19.8072 3.63803 19.673L2.73005 21.455C3.32234 21.7568 3.96253 21.8826 4.69138 21.9422C5.40855 22.0008 6.2964 22 7.4 22V20ZM0 14.6C0 15.7036 -0.000777721 16.5914 0.0578178 17.3086C0.117367 18.0375 0.24318 18.6777 0.544967 19.27L2.32698 18.362C2.19279 18.0986 2.10062 17.7509 2.05118 17.1458C2.00078 16.5289 2 15.7366 2 14.6H0ZM3.63803 19.673C3.07354 19.3854 2.6146 18.9265 2.32698 18.362L0.544967 19.27C1.02433 20.2108 1.78924 20.9757 2.73005 21.455L3.63803 19.673ZM20 14.6C20 15.7366 19.9992 16.5289 19.9488 17.1458C19.8994 17.7509 19.8072 18.0986 19.673 18.362L21.455 19.27C21.7568 18.6777 21.8826 18.0375 21.9422 17.3086C22.0008 16.5914 22 15.7036 22 14.6H20ZM14.6 22C15.7036 22 16.5914 22.0008 17.3086 21.9422C18.0375 21.8826 18.6777 21.7568 19.27 21.455L18.362 19.673C18.0986 19.8072 17.7509 19.8994 17.1458 19.9488C16.5289 19.9992 15.7366 20 14.6 20V22ZM19.673 18.362C19.3854 18.9265 18.9265 19.3854 18.362 19.673L19.27 21.455C20.2108 20.9757 20.9757 20.2108 21.455 19.27L19.673 18.362ZM14.6 4C15.7366 4 16.5289 4.00078 17.1458 4.05118C17.7509 4.10062 18.0986 4.19279 18.362 4.32698L19.27 2.54497C18.6777 2.24318 18.0375 2.11737 17.3086 2.05782C16.5914 1.99922 15.7036 2 14.6 2V4ZM22 9.4C22 8.2964 22.0008 7.40855 21.9422 6.69138C21.8826 5.96253 21.7568 5.32234 21.455 4.73005L19.673 5.63803C19.8072 5.90138 19.8994 6.24907 19.9488 6.85424C19.9992 7.47108 20 8.26339 20 9.4H22ZM18.362 4.32698C18.9265 4.6146 19.3854 5.07354 19.673 5.63803L21.455 4.73005C20.9757 3.78924 20.2108 3.02433 19.27 2.54497L18.362 4.32698ZM7.4 2C6.2964 2 5.40855 1.99922 4.69138 2.05782C3.96253 2.11737 3.32234 2.24318 2.73005 2.54497L3.63803 4.32698C3.90138 4.19279 4.24907 4.10062 4.85424 4.05118C5.47108 4.00078 6.26339 4 7.4 4V2ZM2 9.4C2 8.26339 2.00078 7.47108 2.05118 6.85424C2.10062 6.24907 2.19279 5.90138 2.32698 5.63803L0.544967 4.73005C0.24318 5.32234 0.117367 5.96253 0.0578178 6.69138C-0.000777721 7.40855 0 8.2964 0 9.4H2ZM2.73005 2.54497C1.78924 3.02433 1.02433 3.78924 0.544967 4.73005L2.32698 5.63803C2.6146 5.07354 3.07354 4.6146 3.63803 4.32698L2.73005 2.54497ZM1 8H21V6H1V8ZM14 14H16V12H14V14ZM16 14V16H18V14H16ZM16 16H14V18H16V16ZM14 16V14H12V16H14ZM14 16H12C12 17.1046 12.8954 18 14 18V16ZM16 16V18C17.1046 18 18 17.1046 18 16H16ZM16 14H18C18 12.8954 17.1046 12 16 12V14ZM14 12C12.8954 12 12 12.8954 12 14H14V12Z" />
  </symbol>

  <symbol xmlns="http://www.w3.org/2000/svg" viewBox="0 0 24 24" id="check-sharp">
    <path
      d="M14.560 10.937 L 9.820 15.595 9.240 15.027 C 8.921 14.715,7.781 13.595,6.706 12.540 C 5.632 11.484,4.729 10.620,4.700 10.620 C 4.672 10.620,4.346 10.932,3.978 11.313 L 3.307 12.006 3.623 12.320 C 3.797 12.493,5.263 13.932,6.879 15.517 L 9.819 18.400 10.239 17.984 C 10.471 17.755,12.910 15.360,15.660 12.662 C 18.410 9.963,20.664 7.742,20.668 7.727 C 20.673 7.712,20.367 7.380,19.988 6.990 L 19.300 6.280 14.560 10.937 "
      fill-rule="evenodd"></path>
  </symbol>
  <symbol xmlns="http://www.w3.org/2000/svg" viewBox="0 0 24 24" id="minus-sharp">
    <path
      d="M4.000 12.000 L 4.000 13.000 12.000 13.000 L 20.000 13.000 20.000 12.000 L 20.000 11.000 12.000 11.000 L 4.000 11.000 4.000 12.000 "
      stroke="none" fill-rule="evenodd"></path>
  </symbol>
  <symbol xmlns="http://www.w3.org/2000/svg" viewBox="0 0 24 24" id="minus">
    <path
      d="M4.673 11.063 C 4.310 11.175,4.000 11.606,4.000 12.000 C 4.000 12.405,4.309 12.826,4.690 12.939 C 4.870 12.993,5.755 13.000,12.000 13.000 C 18.245 13.000,19.130 12.993,19.310 12.939 C 19.688 12.827,20.000 12.402,20.000 12.000 C 20.000 11.598,19.688 11.173,19.310 11.061 C 19.009 10.971,4.964 10.974,4.673 11.063 "
      fill-rule="evenodd"></path>
  </symbol>

   <symbol xmlns="http://www.w3.org/2000/svg" viewBox="0 0 24 24" id="info-in-circle-filled">
    <path fill-rule="evenodd" clip-rule="evenodd"
       d="M12 2C17.5228 2 22 6.47715 22 12C22 17.5228 17.5228 22 12 22C6.47715 22 2 17.5228 2 12C2 6.47715 6.47715 2 12 2ZM13 17C13 17.5523 12.5523 18 12 18C11.4477 18 11 17.5523 11 17V11C11 10.4477 11.4477 10 12 10C12.5523 10 13 10.4477 13 11V17ZM13 7C13 7.55229 12.5523 8 12 8C11.4477 8 11 7.55229 11 7V6.99C11 6.43771 11.4477 5.99 12 5.99C12.5523 5.99 13 6.43771 13 6.99V7Z" />
  </symbol>
  <symbol xmlns="http://www.w3.org/2000/svg" viewBox="0 0 24 24" id="check-in-circle-filled">
    <path fill-rule="evenodd" clip-rule="evenodd"
       d="M12 22C17.5228 22 22 17.5228 22 12C22 6.47715 17.5228 2 12 2C6.47715 2 2 6.47715 2 12C2 17.5228 6.47715 22 12 22ZM16.7071 10.107C17.0976 9.71649 17.0976 9.08332 16.7071 8.6928C16.3166 8.30227 15.6834 8.30227 15.2929 8.6928L10.6667 13.319L8.70711 11.3595C8.31658 10.9689 7.68342 10.9689 7.29289 11.3595C6.90237 11.75 6.90237 12.3832 7.29289 12.7737L9.95956 15.4403C10.1471 15.6279 10.4015 15.7332 10.6667 15.7332C10.9319 15.7332 11.1862 15.6279 11.3738 15.4403L16.7071 10.107Z" />
  </symbol>

   <symbol xmlns="http://www.w3.org/2000/svg" viewBox="0 0 24 24" id="info-in-circle-sharp-filled">
    <path fill-rule="evenodd" clip-rule="evenodd"
      d="M12 2C17.5228 2 22 6.47715 22 12C22 17.5228 17.5228 22 12 22C6.47715 22 2 17.5228 2 12C2 6.47715 6.47715 2 12 2ZM11 17.5V10.5H13V17.5H11ZM11 8.5V6.5H13V8.5H11Z" />
  </symbol>
  <symbol xmlns="http://www.w3.org/2000/svg" viewBox="0 0 24 24" id="check-in-circle-sharp-filled">
    <path fill-rule="evenodd" clip-rule="evenodd"
      d="M12 22C17.5228 22 22 17.5228 22 12C22 6.47715 17.5228 2 12 2C6.47715 2 2 6.47715 2 12C2 17.5228 6.47715 22 12 22ZM10.9086 15.9017L16.7002 10.2135L15.2988 8.78662L10.9086 13.0984L8.70024 10.9295L7.29883 12.3564L10.9086 15.9017Z" />
  </symbol>

   <symbol xmlns="http://www.w3.org/2000/svg" viewBox="0 0 24 24" id="check-in-circle">
    <path
      d="m11.28 1.023-.56.06c-1.888.2-3.729.94-5.36 2.152-.606.451-1.674 1.519-2.125 2.125-1.034 1.39-1.698 2.866-2.011 4.47-.166.847-.201 1.227-.201 2.17 0 .943.035 1.323.201 2.17.313 1.604.977 3.08 2.011 4.47.451.606 1.519 1.674 2.125 2.125 1.625 1.209 3.314 1.89 5.36 2.162.491.065 2.069.065 2.56 0 2.046-.272 3.735-.953 5.36-2.162.606-.451 1.674-1.519 2.125-2.125 1.209-1.625 1.89-3.314 2.162-5.36.065-.491.065-2.069 0-2.56-.272-2.046-.953-3.735-2.162-5.36-.451-.606-1.519-1.674-2.125-2.125-1.595-1.186-3.275-1.875-5.217-2.139C13 1.038 11.574.99 11.28 1.023m1.728 2.036a8.827 8.827 0 0 1 3.012.899c.947.479 1.613.959 2.338 1.684.725.725 1.205 1.391 1.684 2.338 1.075 2.123 1.249 4.555.493 6.86-.619 1.887-1.895 3.547-3.608 4.692-.789.528-2.051 1.056-3.019 1.265a9.049 9.049 0 0 1-7.542-1.782 10.477 10.477 0 0 1-1.381-1.381 9.173 9.173 0 0 1-1.943-4.748c-.233-2.309.476-4.687 1.946-6.526 1.449-1.811 3.627-3.017 5.96-3.299a9.918 9.918 0 0 1 2.06-.002m2.632 5.409c-.154.053-.521.402-2.581 2.457l-2.4 2.394-1.02-1.024C8.516 11.167 8.399 11.08 8 11.081a1.003 1.003 0 0 0-.892.539c-.123.23-.119.654.007.9.138.268 2.885 3.008 3.125 3.117.26.117.608.111.862-.016.152-.076.845-.747 2.984-2.89 2.699-2.703 2.789-2.798 2.85-3.008.08-.271.08-.375.003-.633-.155-.524-.753-.809-1.299-.622"
      fill-rule="evenodd" />
  </symbol>
  <symbol xmlns="http://www.w3.org/2000/svg" viewBox="0 0 24 24" id="x-in-circle">
    <path
      d="M11.052 1.041c-2.115.205-4.007.933-5.689 2.189-.609.454-1.679 1.524-2.133 2.133a11.039 11.039 0 0 0-2.114 5.079c-.133.886-.133 2.23 0 3.116.301 2.006 1.046 3.724 2.317 5.342.284.361 1.306 1.383 1.667 1.667 1.618 1.271 3.336 2.016 5.342 2.317.886.133 2.23.133 3.116 0 1.964-.295 3.654-1.017 5.242-2.238.438-.337 1.509-1.408 1.846-1.846 1.221-1.588 1.943-3.278 2.238-5.242.133-.886.133-2.23 0-3.116-.295-1.964-1.019-3.659-2.239-5.242-.314-.407-1.354-1.46-1.745-1.767-1.615-1.266-3.356-2.023-5.32-2.313-.642-.095-1.946-.136-2.528-.079m1.956 2.018a8.867 8.867 0 0 1 2.972.879 8.405 8.405 0 0 1 2.377 1.705 8.365 8.365 0 0 1 1.704 2.377c1.253 2.549 1.253 5.411 0 7.96a8.365 8.365 0 0 1-1.704 2.377 8.365 8.365 0 0 1-2.377 1.704c-2.547 1.252-5.425 1.252-7.96.001a8.405 8.405 0 0 1-2.377-1.705 8.405 8.405 0 0 1-1.705-2.377 8.917 8.917 0 0 1 0-7.96 8.405 8.405 0 0 1 1.705-2.377A8.405 8.405 0 0 1 8.02 3.938a8.947 8.947 0 0 1 4.988-.879M8.973 8.202a.972.972 0 0 0-.716.578c-.097.233-.088.603.022.822.059.117.469.559 1.194 1.288L10.578 12l-1.105 1.11c-.725.729-1.135 1.171-1.194 1.288-.173.347-.099.83.173 1.117.28.296.788.387 1.15.206.117-.059.559-.469 1.288-1.194L12 13.422l1.11 1.105c.729.725 1.171 1.135 1.288 1.194.362.181.87.09 1.15-.206.272-.287.346-.77.173-1.117-.059-.117-.469-.559-1.194-1.288L13.422 12l1.105-1.11c.725-.729 1.135-1.171 1.194-1.288.173-.347.099-.83-.173-1.117a1.03 1.03 0 0 0-1.15-.206c-.117.059-.559.469-1.288 1.194L12 10.578l-1.11-1.105c-.668-.665-1.174-1.136-1.27-1.183-.2-.098-.431-.13-.647-.088"
      fill-rule="evenodd" />
  </symbol>

  <symbol xmlns="http://www.w3.org/2000/svg" viewBox="0 0 24 24" id="archive">
    <path
      d="M3.485 2.045c-.303.05-.732.206-.998.362-.292.171-.909.788-1.08 1.08-.527.898-.527 2.143 0 3.021.29.483.883 1.017 1.367 1.231l.223.099.014 4.911c.015 5.423-.003 5.036.271 5.86a4.797 4.797 0 0 0 1.197 1.912c.744.744 1.626 1.202 2.712 1.408.39.074 9.228.074 9.618 0 1.086-.206 1.968-.664 2.712-1.408.732-.732 1.183-1.59 1.406-2.677.032-.159.05-1.639.061-5.115l.015-4.891.223-.099c.484-.214 1.077-.748 1.367-1.231.527-.878.527-2.123 0-3.021-.171-.292-.788-.909-1.08-1.08a3.263 3.263 0 0 0-1.033-.364c-.326-.053-16.677-.051-16.995.002m16.935 2.05a.976.976 0 0 1 .578.905.976.976 0 0 1-.578.905l-.2.094H3.78l-.2-.094A.976.976 0 0 1 3.002 5c0-.399.213-.732.578-.905l.2-.094h16.44l.2.094M19 12.662c0 5.247.013 4.994-.3 5.638a2.93 2.93 0 0 1-1.4 1.4c-.641.312-.43.3-5.3.3s-4.659.012-5.3-.3a2.93 2.93 0 0 1-1.4-1.4c-.313-.644-.3-.391-.3-5.638V8h14v4.662m-9.515-2.617c-.303.05-.732.206-.998.362-.292.171-.909.788-1.08 1.08-.527.899-.527 2.127 0 3.026.171.292.788.909 1.08 1.08.28.164.691.309 1.033.364.35.057 4.61.057 4.96 0 .654-.105 1.108-.346 1.62-.857.397-.398.575-.667.726-1.102.284-.815.194-1.784-.233-2.511-.171-.292-.788-.909-1.08-1.08a3.263 3.263 0 0 0-1.033-.364c-.319-.052-4.683-.05-4.995.002m4.915 2.038c.242.11.391.257.505.497a.996.996 0 0 1-.505 1.337c-.174.079-.253.081-2.4.082H9.78l-.2-.094A.976.976 0 0 1 9.002 13c0-.399.213-.732.578-.905l.2-.094H12c2.147.001 2.226.003 2.4.082"
      fill-rule="evenodd" />
  </symbol>
  <symbol xmlns="http://www.w3.org/2000/svg" viewBox="0 0 24 24" id="pause-in-circle">
    <path
      d="m11.28 1.023-.56.06c-1.888.2-3.729.94-5.36 2.152-.606.451-1.674 1.519-2.125 2.125-1.034 1.39-1.698 2.866-2.011 4.47-.166.847-.201 1.227-.201 2.17 0 .943.035 1.323.201 2.17.313 1.604.977 3.08 2.011 4.47.451.606 1.519 1.674 2.125 2.125 1.625 1.209 3.314 1.89 5.36 2.162.491.065 2.069.065 2.56 0 2.046-.272 3.735-.953 5.36-2.162.606-.451 1.674-1.519 2.125-2.125 1.209-1.625 1.89-3.314 2.162-5.36.065-.491.065-2.069 0-2.56-.272-2.046-.953-3.735-2.162-5.36-.451-.606-1.519-1.674-2.125-2.125-1.595-1.186-3.275-1.875-5.217-2.139C13 1.038 11.574.99 11.28 1.023m1.728 2.036a8.827 8.827 0 0 1 3.012.899c.947.479 1.613.959 2.338 1.684.725.725 1.205 1.391 1.684 2.338 1.075 2.123 1.249 4.555.493 6.86-.619 1.887-1.895 3.547-3.608 4.692-.789.528-2.051 1.056-3.019 1.265a9.049 9.049 0 0 1-7.542-1.782 10.477 10.477 0 0 1-1.381-1.381 9.173 9.173 0 0 1-1.943-4.748c-.233-2.309.476-4.687 1.946-6.526 1.449-1.811 3.627-3.017 5.96-3.299a9.918 9.918 0 0 1 2.06-.002M9.046 7.623a.975.975 0 0 0-.488.573c-.028.097-.038 1.38-.03 3.887l.012 3.743.121.196c.075.121.196.242.317.317.176.109.229.121.522.121.293 0 .346-.012.522-.121.121-.075.242-.196.317-.317l.121-.196V8.174l-.121-.196c-.179-.289-.434-.433-.795-.45-.245-.011-.314.002-.498.095m5 0a.975.975 0 0 0-.488.573c-.028.097-.038 1.38-.03 3.887l.012 3.743.121.196c.075.121.196.242.317.317.176.109.229.121.522.121.293 0 .346-.012.522-.121.121-.075.242-.196.317-.317l.121-.196V8.174l-.121-.196c-.179-.289-.434-.433-.795-.45-.245-.011-.314.002-.498.095"
      fill-rule="evenodd" />
  </symbol>
  <symbol xmlns="http://www.w3.org/2000/svg" viewBox="0 0 24 24" id="play-in-circle">
    <path
      d="M11.096 1.038c-2.194.199-4.134.961-5.896 2.317-.438.337-1.506 1.405-1.849 1.849C2.279 6.59 1.545 8.188 1.224 9.83c-.166.847-.201 1.227-.201 2.17 0 .943.035 1.323.201 2.17.311 1.595.99 3.107 2.006 4.467.454.609 1.524 1.679 2.133 2.133a11.1 11.1 0 0 0 5.177 2.136c.592.085 2.213.098 2.76.021 2.066-.289 3.743-.967 5.337-2.157.609-.454 1.679-1.524 2.133-2.133 1.016-1.36 1.695-2.872 2.006-4.467.168-.857.202-1.226.201-2.19 0-.754-.017-1.031-.093-1.538-.294-1.959-1.017-3.654-2.239-5.242-.337-.438-1.407-1.508-1.845-1.845-1.591-1.224-3.275-1.944-5.223-2.234-.629-.093-1.897-.136-2.481-.083m1.767 2.004a9.025 9.025 0 0 1 7.22 5.018c1.039 2.119 1.198 4.505.452 6.78-.615 1.877-1.876 3.528-3.555 4.657-.767.516-1.88 1.006-2.817 1.241-.766.192-1.202.241-2.163.241-.961 0-1.397-.049-2.163-.241a9.428 9.428 0 0 1-3.509-1.746A9.085 9.085 0 0 1 3 11.986c0-3.413 1.976-6.563 5.06-8.068a8.998 8.998 0 0 1 4.803-.876m-2.612 4.016c-.706.161-1.32.724-1.558 1.431-.066.194-.073.467-.084 3.377-.013 3.406-.008 3.503.195 3.921.32.663.989 1.131 1.709 1.198.365.034.781-.042 1.092-.199.336-.17 4.268-3.012 4.567-3.302.266-.256.524-.73.588-1.079a2.087 2.087 0 0 0-.55-1.843c-.142-.147-.93-.744-2.05-1.553-2.423-1.749-2.431-1.754-2.736-1.869a2.274 2.274 0 0 0-1.173-.082m2.509 3.407c1.42 1.028 2.02 1.485 2.02 1.537 0 .089-3.952 2.97-4.08 2.975-.079.003-.08-.026-.09-2.937-.006-1.617-.002-2.962.008-2.99.011-.027.043-.05.071-.049.028 0 .96.659 2.071 1.464"
      fill-rule="evenodd" />
  </symbol>
  <symbol xmlns="http://www.w3.org/2000/svg" viewBox="0 0 24 24" id="x">
    <path
      d="M5.65 5.067c-.229.081-.506.364-.586.599a.968.968 0 0 0 .001.677c.06.179.315.447 2.789 2.927L10.578 12l-2.725 2.73c-2.638 2.642-2.728 2.737-2.789 2.947-.08.271-.08.375-.003.633.083.279.35.546.629.629.258.077.362.077.633-.003.21-.061.305-.151 2.947-2.789L12 13.422l2.73 2.725c2.642 2.638 2.737 2.728 2.947 2.789.271.08.375.08.633.003.279-.083.546-.35.629-.629.077-.258.077-.362-.003-.633-.061-.21-.151-.305-2.789-2.947L13.422 12l2.725-2.73c2.638-2.642 2.728-2.737 2.789-2.947.08-.271.08-.375.003-.633a1.004 1.004 0 0 0-.629-.629c-.258-.077-.362-.077-.633.003-.21.061-.305.151-2.947 2.789L12 10.578 9.27 7.854C6.79 5.38 6.522 5.125 6.343 5.065a1.03 1.03 0 0 0-.693.002"
      fill-rule="evenodd" />
  </symbol>
  <symbol xmlns="http://www.w3.org/2000/svg" width="60" height="60" viewBox="0 0 60 60" fill="none" id="clipboard">
    <path d="M27.5 28.5C26.6716 28.5 26 29.1716 26 30C26 30.8284 26.6716 31.5 27.5 31.5V28.5ZM35 31.5C35.8284 31.5 36.5 30.8284 36.5 30C36.5 29.1716 35.8284 28.5 35 28.5V31.5ZM27.5 38.5C26.6716 38.5 26 39.1716 26 40C26 40.8284 26.6716 41.5 27.5 41.5V38.5ZM40 41.5C40.8284 41.5 41.5 40.8284 41.5 40C41.5 39.1716 40.8284 38.5 40 38.5V41.5ZM20 28.5C19.1716 28.5 18.5 29.1716 18.5 30C18.5 30.8284 19.1716 31.5 20 31.5V28.5ZM20.025 31.5C20.8534 31.5 21.525 30.8284 21.525 30C21.525 29.1716 20.8534 28.5 20.025 28.5V31.5ZM20 38.5C19.1716 38.5 18.5 39.1716 18.5 40C18.5 40.8284 19.1716 41.5 20 41.5V38.5ZM20.025 41.5C20.8534 41.5 21.525 40.8284 21.525 40C21.525 39.1716 20.8534 38.5 20.025 38.5V41.5ZM48.5 20V45H51.5V20H48.5ZM40 53.5H20V56.5H40V53.5ZM11.5 45V20H8.5V45H11.5ZM20 53.5C15.3056 53.5 11.5 49.6944 11.5 45H8.5C8.5 51.3513 13.6487 56.5 20 56.5V53.5ZM48.5 45C48.5 49.6944 44.6944 53.5 40 53.5V56.5C46.3513 56.5 51.5 51.3513 51.5 45H48.5ZM51.5 20C51.5 13.6487 46.3513 8.5 40 8.5V11.5C44.6944 11.5 48.5 15.3056 48.5 20H51.5ZM11.5 20C11.5 15.3056 15.3056 11.5 20 11.5V8.5C13.6487 8.5 8.5 13.6487 8.5 20H11.5ZM23.75 6.5H36.25V3.5H23.75V6.5ZM38.5 8.75V11.25H41.5V8.75H38.5ZM36.25 13.5H23.75V16.5H36.25V13.5ZM21.5 11.25V8.75H18.5V11.25H21.5ZM23.75 13.5C22.5074 13.5 21.5 12.4926 21.5 11.25H18.5C18.5 14.1495 20.8505 16.5 23.75 16.5V13.5ZM38.5 11.25C38.5 12.4926 37.4926 13.5 36.25 13.5V16.5C39.1495 16.5 41.5 14.1495 41.5 11.25H38.5ZM36.25 6.5C37.4926 6.5 38.5 7.50736 38.5 8.75H41.5C41.5 5.85051 39.1495 3.5 36.25 3.5V6.5ZM23.75 3.5C20.8505 3.5 18.5 5.85051 18.5 8.75H21.5C21.5 7.50736 22.5074 6.5 23.75 6.5V3.5ZM27.5 31.5H35V28.5H27.5V31.5ZM27.5 41.5H40V38.5H27.5V41.5ZM20 31.5H20.025V28.5H20V31.5ZM20 41.5H20.025V38.5H20V41.5Z" fill="#00B627"/>
  </symbol>
  <symbol xmlns="http://www.w3.org/2000/svg" width="60" height="60" viewBox="0 0 60 60" fill="none" id="users">
    <path d="M2.5 52.5V47.5C2.5 41.9772 6.97715 37.5 12.5 37.5H32.5C38.0228 37.5 42.5 41.9772 42.5 47.5V52.5M57.5 52.5V47.5C57.5 41.9772 53.0228 37.5 47.5 37.5H46.875M36.8652 7.51982C37.0751 7.50667 37.2868 7.5 37.5 7.5C43.0228 7.5 47.5 11.9772 47.5 17.5C47.5 23.0228 43.0228 27.5 37.5 27.5C37.2868 27.5 37.0751 27.4933 36.8652 27.4802M32.5 17.5C32.5 23.0228 28.0228 27.5 22.5 27.5C16.9772 27.5 12.5 23.0228 12.5 17.5C12.5 11.9772 16.9772 7.5 22.5 7.5C28.0228 7.5 32.5 11.9772 32.5 17.5Z" stroke="#FCAF1A" stroke-width="3" stroke-linecap="round"/>
</symbol>
<symbol xmlns="http://www.w3.org/2000/svg" width="60" height="60" viewBox="0 0 60 60" fill="none" id="user-friendly">
  <path d="M32.5 44.6875L38.0972 50.1848C38.5227 50.6027 39.2046 50.6027 39.63 50.1848L50 40M10 52.5V47.5C10 41.9772 14.4772 37.5 20 37.5H25M40 17.5C40 23.0228 35.5228 27.5 30 27.5C24.4772 27.5 20 23.0228 20 17.5C20 11.9772 24.4772 7.5 30 7.5C35.5228 7.5 40 11.9772 40 17.5Z" stroke="#6826F7" stroke-width="3" stroke-linecap="round"/>
</symbol>
<symbol xmlns="http://www.w3.org/2000/svg" width="60" height="60" viewBox="0 0 60 60" fill="none" id="time">
  <path d="M41.0511 45.4477C40.46 44.8672 39.5103 44.8758 38.9298 45.4668C38.3493 46.0578 38.3579 47.0075 38.9489 47.588L41.0511 45.4477ZM56.0511 43.5702C56.6421 42.9897 56.6507 42.04 56.0702 41.4489C55.4897 40.8579 54.54 40.8493 53.9489 41.4298L56.0511 43.5702ZM44.7976 51.2298L43.7466 52.3L44.7976 51.2298ZM46.1115 51.2298L47.1625 52.3L46.1115 51.2298ZM30 56.5C30.8284 56.5 31.5 55.8284 31.5 55C31.5 54.1716 30.8284 53.5 30 53.5V56.5ZM53.5 30C53.5 30.8284 54.1716 31.5 55 31.5C55.8284 31.5 56.5 30.8284 56.5 30H53.5ZM31.5 17.5C31.5 16.6716 30.8284 16 30 16C29.1716 16 28.5 16.6716 28.5 17.5H31.5ZM31.0114 32.3672L30.1182 33.5723H30.1182L31.0114 32.3672ZM35.3568 37.4551C36.0224 37.9484 36.9618 37.8087 37.4551 37.1432C37.9484 36.4776 37.8087 35.5382 37.1432 35.0449L35.3568 37.4551ZM38.9489 47.588L43.7466 52.3L45.8487 50.1596L41.0511 45.4477L38.9489 47.588ZM47.1625 52.3L56.0511 43.5702L53.9489 41.4298L45.0604 50.1596L47.1625 52.3ZM43.7466 52.3C44.6948 53.2313 46.2143 53.2313 47.1625 52.3L45.0604 50.1596C45.2792 49.9447 45.6299 49.9447 45.8487 50.1596L43.7466 52.3ZM30 53.5C17.0213 53.5 6.5 42.9787 6.5 30H3.5C3.5 44.6355 15.3645 56.5 30 56.5V53.5ZM6.5 30C6.5 17.0213 17.0213 6.5 30 6.5V3.5C15.3645 3.5 3.5 15.3645 3.5 30H6.5ZM30 6.5C42.9787 6.5 53.5 17.0213 53.5 30H56.5C56.5 15.3645 44.6355 3.5 30 3.5V6.5ZM28.5 17.5V30.3588H31.5V17.5H28.5ZM30.1182 33.5723L35.3568 37.4551L37.1432 35.0449L31.9045 31.1622L30.1182 33.5723ZM28.5 30.3588C28.5 31.6258 29.1003 32.8179 30.1182 33.5723L31.9045 31.1622C31.6501 30.9736 31.5 30.6755 31.5 30.3588H28.5Z" fill="#FC4130" />
</symbol>
<symbol xmlns="http://www.w3.org/2000/svg" width="60" height="60" viewBox="0 0 60 60" fill="none" id="document">
  <path d="M35 5H20C14.4772 5 10 9.47715 10 15V45C10 50.5228 14.4772 55 20 55H40C45.5228 55 50 50.5228 50 45V20M35 5V15C35 17.7614 37.2386 20 40 20H50M35 5L50 20M20 45V40M30 45L30 30M40 45L40 35" stroke="#1977FB" stroke-width="3" stroke-linecap="round"/>
</symbol>
<symbol xmlns="http://www.w3.org/2000/svg"  width="60" height="60" viewBox="0 0 60 60" fill="none" id="clock">
  <path d="M6.35176 54.0348C5.81871 54.669 5.90068 55.6152 6.53483 56.1482C7.16899 56.6813 8.11519 56.5993 8.64824 55.9652L6.35176 54.0348ZM3.93934 11.4393C3.35355 12.0251 3.35355 12.9749 3.93934 13.5607C4.52513 14.1464 5.47487 14.1464 6.06066 13.5607L3.93934 11.4393ZM13.5607 6.06066C14.1464 5.47487 14.1464 4.52513 13.5607 3.93934C12.9749 3.35355 12.0251 3.35355 11.4393 3.93934L13.5607 6.06066ZM51.3518 55.9652C51.8848 56.5993 52.831 56.6813 53.4652 56.1482C54.0993 55.6152 54.1813 54.669 53.6482 54.0348L51.3518 55.9652ZM48.5607 3.93934C47.9749 3.35355 47.0251 3.35355 46.4393 3.93934C45.8536 4.52513 45.8536 5.47487 46.4393 6.06066L48.5607 3.93934ZM53.9393 13.5607C54.5251 14.1464 55.4749 14.1464 56.0607 13.5607C56.6464 12.9749 56.6464 12.0251 56.0607 11.4393L53.9393 13.5607ZM21.0609 30.0396C20.4753 29.4537 19.5255 29.4534 18.9396 30.0391C18.3537 30.6247 18.3534 31.5745 18.9391 32.1604L21.0609 30.0396ZM41.0561 26.8152C41.6444 26.2319 41.6485 25.2822 41.0652 24.6939C40.4819 24.1056 39.5322 24.1015 38.9439 24.6848L41.0561 26.8152ZM26.3968 37.5L25.3359 38.5604L25.3458 38.5702L26.3968 37.5ZM28.1486 37.5L29.1997 38.5702L29.2047 38.5652L28.1486 37.5ZM9 31.25C9 19.652 18.402 10.25 30 10.25V7.25C16.7452 7.25 6 17.9952 6 31.25H9ZM30 10.25C41.598 10.25 51 19.652 51 31.25H54C54 17.9952 43.2548 7.25 30 7.25V10.25ZM6.06066 13.5607L13.5607 6.06066L11.4393 3.93934L3.93934 11.4393L6.06066 13.5607ZM46.4393 6.06066L53.9393 13.5607L56.0607 11.4393L48.5607 3.93934L46.4393 6.06066ZM44.7617 48.1251L51.3518 55.9652L53.6482 54.0348L47.0581 46.1947L44.7617 48.1251ZM51 31.25C51 37.0494 48.6511 42.2973 44.8492 46.0992L46.9706 48.2206C51.3121 43.8791 54 37.877 54 31.25H51ZM44.8492 46.0992C41.0473 49.9011 35.7994 52.25 30 52.25V55.25C36.627 55.25 42.6291 52.5621 46.9706 48.2206L44.8492 46.0992ZM8.64824 55.9652L15.2383 48.1251L12.9419 46.1947L6.35176 54.0348L8.64824 55.9652ZM30 52.25C24.2006 52.25 18.9527 49.9011 15.1508 46.0992L13.0294 48.2206C17.3709 52.5621 23.373 55.25 30 55.25V52.25ZM15.1508 46.0992C11.3489 42.2973 9 37.0494 9 31.25H6C6 37.877 8.68793 43.8791 13.0294 48.2206L15.1508 46.0992ZM18.9391 32.1604L25.3359 38.5604L27.4578 36.4396L21.0609 30.0396L18.9391 32.1604ZM29.2047 38.5652L41.0561 26.8152L38.9439 24.6848L27.0925 36.4348L29.2047 38.5652ZM25.3458 38.5702C26.4156 39.6209 28.1299 39.6209 29.1997 38.5702L27.0976 36.4298C27.1948 36.3343 27.3507 36.3343 27.4479 36.4298L25.3458 38.5702Z" fill="#D400F9"/>
</symbol>

<symbol xmlns="http://www.w3.org/2000/svg" width="60" height="60" viewBox="0 0 60 60" fill="none" id="enterprice-plan">
 <path d="M27.0977 40.6835L19.961 33.5468M27.0977 40.6835C27.0977 40.6835 39.587 35.331 46.7237 28.1943C54.8974 20.0205 55.6445 5 55.6445 5C55.6445 5 40.6244 5.7475 32.4502 13.9209C25.3132 21.0572 19.961 33.5468 19.961 33.5468M27.0977 40.6835L31.3181 55L33.6632 54.3716C39.0833 52.9193 42.2781 47.325 40.7749 41.9189L38.7055 34.4495M19.961 33.5468L5.64453 29.3264L6.2729 26.9813C7.72519 21.5613 13.3195 18.3664 18.7256 19.8696L26.1949 21.9389M18.1768 49.6044C14.6085 53.1727 5.68762 54.9569 5.68762 54.9569C5.68762 54.9569 7.47179 46.036 11.0401 42.4677C13.0109 40.4969 16.2061 40.4969 18.1768 42.4677C20.1476 44.4384 20.1476 47.6336 18.1768 49.6044ZM43.156 21.0583C42.1706 22.0436 40.573 22.0436 39.5876 21.0583C38.6023 20.0729 38.6023 18.4753 39.5876 17.4899C40.573 16.5045 42.1706 16.5045 43.156 17.4899C44.1413 18.4753 44.1413 20.0729 43.156 21.0583Z" stroke="#6826F7" stroke-width="3" stroke-linejoin="round"/>
</symbol>

<symbol xmlns="http://www.w3.org/2000/svg" width="60" height="60" viewBox="0 0 60 60" fill="none" id="professional-plan">
 <path d="M53.5637 6.41196C51.0822 3.92927 46.0633 4.99741 43.5841 7.47787L37.8251 13.168C36.6244 14.3693 34.9025 14.8902 33.2365 14.5561L13.1188 10.5219C11.4528 10.1878 9.73092 10.7087 8.53021 11.9101L5.55853 14.8832C4.53171 15.9106 4.98672 17.6646 6.38381 18.0645L27.025 23.9735L17.2574 33.746C16.6267 34.377 15.711 34.6304 14.8452 34.4135L10.4501 33.3123C9.58423 33.0953 8.66854 33.3487 8.03782 33.9798L5.85798 36.1607C4.72489 37.2943 4.91262 39.1827 6.24692 40.073L12.7577 44.4173C13.8743 45.1624 14.8327 46.1212 15.5774 47.2384L19.9195 53.7524C20.8094 55.0874 22.6968 55.2752 23.8299 54.1416L26.0097 51.9606C26.6404 51.3296 26.8937 50.4135 26.6768 49.5472L25.5762 45.1499C25.3594 44.2836 25.6126 43.3675 26.2434 42.7364L36.011 32.9639L41.917 53.6155C42.3167 55.0133 44.0698 55.4685 45.0967 54.4412L48.0683 51.468C49.269 50.2667 49.7897 48.5439 49.4558 46.8771L45.4236 26.7493C45.0897 25.0825 45.6103 23.3597 46.811 22.1584L52.57 16.4683C55.0492 13.9879 56.0451 8.89465 53.5637 6.41196Z" fill="white"/>
</symbol>

<symbol xmlns="http://www.w3.org/2000/svg" width="60" height="60" viewBox="0 0 60 60" fill="none" id="starter-plan">
 <path d="M25.13 37.5718L23.8092 38.2827L25.13 37.5718ZM24.377 36.3066L23.2001 37.2366L24.377 36.3066ZM22.4282 34.87L21.7173 36.1908L21.7173 36.1908L22.4282 34.87ZM23.6934 35.623L22.7634 36.7999V36.7999L23.6934 35.623ZM53.2943 15.1156L54.7172 15.5903L53.2943 15.1156ZM54.8455 7.67275L53.4326 8.17627L54.8455 7.67275ZM44.8844 6.70569L45.3591 8.12861L44.8844 6.70569ZM52.3272 5.15448L51.8237 6.56745L52.3272 5.15448ZM13.3196 17.2352L12.8449 15.8122L13.3196 17.2352ZM5.61638 20.8287L6.89407 21.6146L5.61638 20.8287ZM12.2662 29.4002L12.9772 28.0794L12.2662 29.4002ZM5.29468 24.5441L6.6883 23.9893L5.29468 24.5441ZM42.7649 46.6804L41.3419 46.2058L42.7649 46.6804ZM39.1713 54.3836L38.3854 53.1059L39.1713 54.3836ZM30.5998 47.7338L31.9206 47.0228L30.5998 47.7338ZM35.4559 54.7053L36.0107 53.3117L35.4559 54.7053ZM37.005 25.1163C37.5908 24.5305 37.5908 23.5807 37.005 22.995C36.4193 22.4092 35.4695 22.4092 34.8837 22.995L37.005 25.1163ZM51.8714 14.6409L41.3419 46.2058L44.1878 47.1551L54.7172 15.5903L51.8714 14.6409ZM13.7942 18.6581L45.3591 8.12861L44.4097 5.28277L12.8449 15.8122L13.7942 18.6581ZM31.9206 47.0228L26.4508 36.8609L23.8092 38.2827L29.279 48.4447L31.9206 47.0228ZM23.1391 33.5492L12.9772 28.0794L11.5553 30.721L21.7173 36.1908L23.1391 33.5492ZM26.4508 36.8609C26.1236 36.253 25.88 35.7893 25.5539 35.3766L23.2001 37.2366C23.3256 37.3954 23.4335 37.5847 23.8092 38.2827L26.4508 36.8609ZM21.7173 36.1908C22.4153 36.5665 22.6046 36.6744 22.7634 36.7999L24.6234 34.4461C24.2107 34.12 23.747 33.8764 23.1391 33.5492L21.7173 36.1908ZM25.5539 35.3766C25.281 35.0313 24.9687 34.719 24.6234 34.4461L22.7634 36.7999C22.9255 36.928 23.072 37.0745 23.2001 37.2366L25.5539 35.3766ZM54.7172 15.5903C55.3852 13.5878 55.9206 11.9876 56.2186 10.7209C56.5113 9.47649 56.6512 8.27119 56.2585 7.16924L53.4326 8.17627C53.521 8.42458 53.5627 8.90984 53.2983 10.0339C53.0391 11.1356 52.5583 12.5817 51.8714 14.6409L54.7172 15.5903ZM45.3591 8.12861C47.4183 7.44169 48.8644 6.96087 49.9661 6.7017C51.0902 6.43727 51.5754 6.47896 51.8237 6.56745L52.8308 3.74152C51.7288 3.34883 50.5235 3.48868 49.2791 3.78141C48.0124 4.07941 46.4122 4.61477 44.4097 5.28277L45.3591 8.12861ZM56.2585 7.16924C55.6885 5.56987 54.4301 4.31145 52.8308 3.74152L51.8237 6.56745C52.5744 6.83496 53.165 7.42556 53.4326 8.17627L56.2585 7.16924ZM12.8449 15.8122C10.5695 16.5713 8.76506 17.1717 7.43798 17.7501C6.15012 18.3115 4.99375 18.9778 4.33869 20.0429L6.89407 21.6146C7.03132 21.3914 7.42292 21.0293 8.63676 20.5002C9.81138 19.9882 11.4624 19.4359 13.7942 18.6581L12.8449 15.8122ZM12.9772 28.0794C10.8135 26.9147 9.28194 26.0887 8.21279 25.3837C7.10788 24.6551 6.78488 24.2319 6.6883 23.9893L3.90106 25.0989C4.36364 26.2609 5.38895 27.1152 6.56129 27.8882C7.7694 28.6849 9.44407 29.5846 11.5553 30.721L12.9772 28.0794ZM4.33869 20.0429C3.40274 21.5647 3.24027 23.4392 3.90106 25.0989L6.6883 23.9893C6.37813 23.2102 6.45419 22.3298 6.89407 21.6146L4.33869 20.0429ZM41.3419 46.2058C40.5641 48.5376 40.0118 50.1886 39.4998 51.3632C38.9707 52.5771 38.6086 52.9687 38.3854 53.1059L39.9571 55.6613C41.0222 55.0062 41.6885 53.8499 42.2499 52.562C42.8283 51.2349 43.4287 49.4305 44.1878 47.1551L41.3419 46.2058ZM29.279 48.4447C30.4154 50.5559 31.3151 52.2306 32.1118 53.4387C32.8848 54.611 33.7391 55.6364 34.9011 56.0989L36.0107 53.3117C35.7681 53.2151 35.3449 52.8921 34.6163 51.7872C33.9113 50.7181 33.0853 49.1865 31.9206 47.0228L29.279 48.4447ZM38.3854 53.1059C37.6702 53.5458 36.7898 53.6219 36.0107 53.3117L34.9011 56.0989C36.5608 56.7597 38.4353 56.5973 39.9571 55.6613L38.3854 53.1059ZM34.8837 22.995L23.1239 34.7547L25.2453 36.8761L37.005 25.1163L34.8837 22.995Z" fill="#6826F7"/>
</symbol>

<symbol width="18" height="12" viewBox="0 0 18 12" fill="none" xmlns="http://www.w3.org/2000/svg" id="green-checkmark">
 <path d="M1 5.48591L6.11747 10.512C6.50649 10.8941 7.12987 10.8941 7.51889 10.512L17 1.2002" stroke="#00B627" stroke-width="2" stroke-linecap="round"/>
</symbol>

<symbol width="18" height="12" viewBox="0 0 18 12" fill="none" xmlns="http://www.w3.org/2000/svg" id="yellow-checkmark">
 <path d="M1 5.48591L6.11747 10.512C6.50649 10.8941 7.12987 10.8941 7.51889 10.512L17 1.2002" stroke="#FEDE84" stroke-width="2" stroke-linecap="round"/>
</symbol>

<symbol width="32" height="32" viewBox="0 0 32 32" fill="none" xmlns="http://www.w3.org/2000/svg" id="star">
 <path d="M23.8912 19.0935C23.5459 19.4281 23.3872 19.9121 23.4659 20.3868L24.6512 26.9468C24.7512 27.5028 24.5165 28.0655 24.0512 28.3868C23.5952 28.7201 22.9885 28.7601 22.4912 28.4935L16.5859 25.4135C16.3805 25.3041 16.1525 25.2455 15.9192 25.2388H15.5579C15.4325 25.2575 15.3099 25.2975 15.1979 25.3588L9.29118 28.4535C8.99918 28.6001 8.66852 28.6521 8.34452 28.6001C7.55518 28.4508 7.02852 27.6988 7.15785 26.9055L8.34452 20.3455C8.42318 19.8668 8.26452 19.3801 7.91918 19.0401L3.10452 14.3735C2.70185 13.9828 2.56185 13.3961 2.74585 12.8668C2.92452 12.3388 3.38052 11.9535 3.93118 11.8668L10.5578 10.9055C11.0619 10.8535 11.5045 10.5468 11.7312 10.0935L14.6512 4.10683C14.7205 3.9735 14.8099 3.85083 14.9179 3.74683L15.0379 3.6535C15.1005 3.58416 15.1725 3.52683 15.2525 3.48016L15.3979 3.42683L15.6245 3.3335H16.1859C16.6872 3.3855 17.1285 3.6855 17.3592 4.1335L20.3179 10.0935C20.5312 10.5295 20.9459 10.8322 21.4245 10.9055L28.0512 11.8668C28.6112 11.9468 29.0792 12.3335 29.2645 12.8668C29.4392 13.4015 29.2885 13.9881 28.8779 14.3735L23.8912 19.0935Z" fill="#FDC632"/>
</symbol>

<svg enable-background="new 0 0 32 32"  id="arrow-left" version="1.1" viewBox="0 0 32 32"  xml:space="preserve" xmlns="http://www.w3.org/2000/svg" xmlns:xlink="http://www.w3.org/1999/xlink" >
 <path clip-rule="evenodd" d="M31.106,15H3.278l8.325-8.293  c0.391-0.391,0.391-1.024,0-1.414c-0.391-0.391-1.024-0.391-1.414,0l-9.9,9.899c-0.385,0.385-0.385,1.029,0,1.414l9.9,9.9  c0.391,0.391,1.024,0.391,1.414,0c0.391-0.391,0.391-1.024,0-1.414L3.278,17h27.828c0.552,0,1-0.448,1-1  C32.106,15.448,31.658,15,31.106,15z"/>
</svg>

<svg xmlns="http://www.w3.org/2000/svg" viewBox="0 0 64 42.67"  id="arrow-right">
 <path class="cls-1" d="M63.22,19.57,44.5.78a2.67,2.67,0,0,0-3.78,3.77L54.79,18.67H2.67a2.67,2.67,0,1,0,0,5.33H55L40.73,38.11a2.67,2.67,0,1,0,3.76,3.78L63.21,23.35a2.67,2.67,0,0,0,0-3.78Z"/>
</svg>

<svg width="24" height="24" viewBox="0 0 24 24" fill="none" xmlns="http://www.w3.org/2000/svg" id="user">
<path d="M16 7C16 9.20914 14.2091 11 12 11C9.79086 11 8 9.20914 8 7C8 4.79086 9.79086 3 12 3C14.2091 3 16 4.79086 16 7Z" stroke="#DDD9ED" stroke-width="2"/>
</svg>

<svg width="24" height="24" viewBox="0 0 24 24" fill="none" xmlns="http://www.w3.org/2000/svg" id="email">
<path d="M22 6L14.058 10.7652C12.7913 11.5252 11.2087 11.5252 9.94202 10.7652L2 6M6 20H18C20.2091 20 22 18.2091 22 16V8C22 5.79086 20.2091 4 18 4H6C3.79086 4 2 5.79086 2 8V16C2 18.2091 3.79086 20 6 20Z" stroke="#DDD9ED" stroke-width="2"/>
</svg>

<svg width="24" height="24" viewBox="0 0 24 24" fill="none" xmlns="http://www.w3.org/2000/svg" id="company">
<path d="M7 5C6.44772 5 6 5.44772 6 6C6 6.55228 6.44772 7 7 7V5ZM11 7C11.5523 7 12 6.55228 12 6C12 5.44772 11.5523 5 11 5V7ZM7 9C6.44772 9 6 9.44772 6 10C6 10.5523 6.44772 11 7 11V9ZM11 11C11.5523 11 12 10.5523 12 10C12 9.44772 11.5523 9 11 9V11ZM7 13C6.44772 13 6 13.4477 6 14C6 14.5523 6.44772 15 7 15V13ZM11 15C11.5523 15 12 14.5523 12 14C12 13.4477 11.5523 13 11 13V15ZM7 17C6.44772 17 6 17.4477 6 18C6 18.5523 6.44772 19 7 19V17ZM11 19C11.5523 19 12 18.5523 12 18C12 17.4477 11.5523 17 11 17V19ZM21 22V23H22V22H21ZM3 22H2V23H3V22ZM7 7H11V5H7V7ZM7 11H11V9H7V11ZM7 15H11V13H7V15ZM7 19H11V17H7V19ZM15 11H17V9H15V11ZM20 14V22H22V14H20ZM21 21H15V23H21V21ZM17 11C18.6569 11 20 12.3431 20 14H22C22 11.2386 19.7614 9 17 9V11ZM7 3H11V1H7V3ZM14 6V22H16V6H14ZM15 21H3V23H15V21ZM4 22V6H2V22H4ZM11 3C12.6569 3 14 4.34315 14 6H16C16 3.23858 13.7614 1 11 1V3ZM7 1C4.23858 1 2 3.23858 2 6H4C4 4.34315 5.34315 3 7 3V1Z" fill="#DDD9ED"/>
</svg>
</svg>