<svg width="236" height="241" viewBox="0 0 236 241" fill="none" xmlns="http://www.w3.org/2000/svg">
<path fill-rule="evenodd" clip-rule="evenodd" d="M108.408 3.41817C76.5294 -1.46224 39.4816 -3.87668 16.888 20.7004C-5.63904 45.2052 0.0525208 84.4261 2.40996 118.723C4.53352 149.617 9.6945 180.665 29.4395 203.302C49.8245 226.672 78.5499 240.627 108.408 240.242C137.944 239.862 163.446 222.336 185.502 201.293C209.317 178.572 238.857 174.25 235.778 118.723C232.202 54.2549 200.945 66.8606 177.037 45.2181C156.143 26.3031 135.491 7.5643 108.408 3.41817Z" fill="#F7F3FE"/>
<path d="M58 41.25H132.5V85.75H178V190.25H58V41.25Z" fill="white"/>
<path fill-rule="evenodd" clip-rule="evenodd" d="M106 143.35C106 141.583 107.433 140.15 109.2 140.15H126.8C128.567 140.15 130 141.583 130 143.35C130 145.117 128.567 146.55 126.8 146.55H109.2C107.433 146.55 106 145.117 106 143.35Z" fill="#9E70FB"/>
<path d="M147.141 114.812L147.301 114.652C148.069 113.876 149.221 113.604 150.253 113.964C150.333 113.98 150.413 114.012 150.493 114.044C151.637 114.524 152.181 115.844 151.701 116.988L151.613 117.188C151.525 117.404 151.421 117.612 151.301 117.804L150.981 118.308L150.597 118.844C149.869 119.796 148.989 120.628 147.997 121.3C147.365 121.74 146.693 122.116 145.989 122.42C145.205 122.764 144.389 123.036 143.549 123.22C142.669 123.396 141.781 123.484 140.885 123.5H140.261C140.208 123.5 140.126 123.492 140.031 123.482C139.899 123.468 139.741 123.452 139.597 123.452C139.112 123.409 138.732 123.339 138.339 123.267C138.297 123.259 138.255 123.252 138.213 123.244C137.373 123.06 136.557 122.788 135.773 122.444C135.069 122.14 134.397 121.764 133.765 121.324C132.437 120.42 131.317 119.244 130.493 117.868C130.365 117.652 130.245 117.428 130.141 117.196L130.021 116.956C129.589 116.052 129.853 114.964 130.645 114.356C131.733 113.5 133.277 113.556 134.301 114.492L134.501 114.692L135.005 115.156C135.421 115.54 135.861 115.892 136.333 116.204C136.629 116.388 136.949 116.58 137.293 116.756C137.653 116.948 138.021 117.116 138.405 117.26C138.797 117.38 139.197 117.476 139.605 117.556L140.165 117.628H140.869C141.293 117.628 141.709 117.596 142.125 117.532C142.533 117.452 142.933 117.356 143.325 117.236C143.701 117.108 144.069 116.956 144.421 116.78C144.765 116.604 145.077 116.42 145.381 116.228C145.685 116.036 145.949 115.844 146.181 115.668L146.733 115.212C146.877 115.092 147.013 114.956 147.141 114.812Z" fill="#9E70FB"/>
<path d="M101.545 114.573C102.225 113.861 103.273 113.637 104.185 114.013C104.289 114.037 104.393 114.077 104.489 114.117C105.609 114.613 106.121 115.933 105.625 117.053L105.545 117.213C105.473 117.445 105.361 117.661 105.225 117.853C105.145 118.013 105.065 118.173 104.905 118.333C104.825 118.413 104.765 118.513 104.705 118.613C104.645 118.713 104.585 118.813 104.505 118.893C104.209 119.333 103.857 119.733 103.465 120.093C103.033 120.597 102.521 121.029 101.945 121.373C101.313 121.813 100.649 122.189 99.9451 122.493C99.1771 122.853 98.3771 123.125 97.5451 123.293C96.6731 123.453 95.7931 123.533 94.9051 123.533H94.2651C94.2358 123.533 94.1744 123.522 94.0965 123.508C93.9616 123.485 93.7773 123.453 93.6251 123.453C93.1452 123.373 92.665 123.293 92.2651 123.213C91.4411 123.029 90.6331 122.765 89.8651 122.413C89.1611 122.109 88.4971 121.733 87.8651 121.293C87.3291 120.909 86.8171 120.477 86.3451 120.013C85.6651 119.349 85.0731 118.597 84.5851 117.773C84.4651 117.565 84.3531 117.357 84.2651 117.133L84.1851 116.893C83.7851 115.997 84.0491 114.941 84.8251 114.333C85.9291 113.501 87.4731 113.565 88.5051 114.493L89.1451 115.133C89.2574 115.217 89.3893 115.321 89.5375 115.437C89.8117 115.653 90.1415 115.913 90.5051 116.173C90.8091 116.389 91.1291 116.573 91.4651 116.733C91.8171 116.941 92.1931 117.101 92.5851 117.213C92.9771 117.357 93.3771 117.461 93.7851 117.533C93.8651 117.533 93.9651 117.553 94.0651 117.573C94.1651 117.593 94.2651 117.613 94.3451 117.613H95.0651C95.4971 117.629 95.9211 117.605 96.3451 117.533C96.7531 117.461 97.1531 117.357 97.5451 117.213C97.9451 117.053 98.3451 116.893 98.6651 116.733C98.8251 116.653 98.9851 116.553 99.1451 116.453C99.3051 116.353 99.4651 116.253 99.6251 116.173C99.9051 116.005 100.169 115.821 100.425 115.613C100.557 115.481 100.665 115.397 100.762 115.322C100.841 115.26 100.913 115.205 100.985 115.133L101.545 114.573Z" fill="#9E70FB"/>
<path d="M133 40.75H62C59.7909 40.75 58 42.5409 58 44.75V186.75C58 188.959 59.7909 190.75 62 190.75H174C176.209 190.75 178 188.959 178 186.75V85.75M133 40.75V83.75C133 84.8546 133.895 85.75 135 85.75H178M133 40.75L178 85.75" stroke="#9E70FB" stroke-width="4"/>
</svg>
