<svg width="252" height="241" viewBox="0 0 252 241" fill="none" xmlns="http://www.w3.org/2000/svg">
<g id="Group 9">
<path id="Vector" fill-rule="evenodd" clip-rule="evenodd" d="M115.758 3.41817C81.7178 -1.46224 42.1583 -3.87668 18.033 20.7004C-6.02133 45.2052 0.0560913 84.4261 2.57335 118.723C4.8409 149.617 10.3518 180.665 31.4354 203.302C53.2025 226.672 83.8753 240.627 115.758 240.242C147.296 239.862 174.527 222.336 198.078 201.293C223.508 178.572 255.051 174.25 251.763 118.723C247.945 54.2549 214.568 66.8606 189.04 45.2181C166.729 26.3031 144.677 7.5643 115.758 3.41817Z" fill="#F7F3FE"/>
<g id="Group 5">
<path id="icon (Stroke)" fill-rule="evenodd" clip-rule="evenodd" d="M49 70.25C49 60.8612 56.6112 53.25 66 53.25C75.3888 53.25 83 60.8612 83 70.25C83 79.6388 75.3888 87.25 66 87.25C56.6112 87.25 49 79.6388 49 70.25ZM99 70.25C99 69.1454 99.8954 68.25 101 68.25H201C202.105 68.25 203 69.1454 203 70.25C203 71.3546 202.105 72.25 201 72.25H101C99.8954 72.25 99 71.3546 99 70.25ZM49 120.25C49 110.861 56.6112 103.25 66 103.25C75.3888 103.25 83 110.861 83 120.25C83 129.639 75.3888 137.25 66 137.25C56.6112 137.25 49 129.639 49 120.25ZM99 120.25C99 119.145 99.8954 118.25 101 118.25H201C202.105 118.25 203 119.145 203 120.25C203 121.355 202.105 122.25 201 122.25H101C99.8954 122.25 99 121.355 99 120.25ZM49 170.25C49 160.861 56.6112 153.25 66 153.25C75.3888 153.25 83 160.861 83 170.25C83 179.639 75.3888 187.25 66 187.25C56.6112 187.25 49 179.639 49 170.25ZM99 170.25C99 169.145 99.8954 168.25 101 168.25H201C202.105 168.25 203 169.145 203 170.25C203 171.355 202.105 172.25 201 172.25H101C99.8954 172.25 99 171.355 99 170.25Z" fill="white"/>
<path id="icon" d="M101 70.25H201M101 120.25H201M101 170.25H201M66 185.25C57.7157 185.25 51 178.534 51 170.25C51 161.966 57.7157 155.25 66 155.25C74.2843 155.25 81 161.966 81 170.25C81 178.534 74.2843 185.25 66 185.25ZM66 135.25C57.7157 135.25 51 128.534 51 120.25C51 111.966 57.7157 105.25 66 105.25C74.2843 105.25 81 111.966 81 120.25C81 128.534 74.2843 135.25 66 135.25ZM66 85.25C57.7157 85.25 51 78.5343 51 70.25C51 61.9657 57.7157 55.25 66 55.25C74.2843 55.25 81 61.9657 81 70.25C81 78.5343 74.2843 85.25 66 85.25Z" stroke="#9E70FB" stroke-width="5" stroke-linecap="round" stroke-linejoin="round"/>
</g>
</g>
</svg>
