<svg width="24" height="24" viewBox="0 0 24 24" fill="none" xmlns="http://www.w3.org/2000/svg">
<g id="outline-Image-default">
<path id="icon" d="M18.759 19.37L15.6144 14.8777C15.3158 14.4512 14.6842 14.4512 14.3856 14.8777L13.1644 16.6223C12.8658 17.0488 12.2342 17.0488 11.9356 16.6223L8.61442 11.8777C8.31585 11.4512 7.68415 11.4512 7.38558 11.8777L3.55236 17.3538M18.759 19.37C20.7512 17.542 22 14.9169 22 12C22 6.47715 17.5228 2 12 2C6.47715 2 2 6.47715 2 12C2 13.9694 2.56932 15.8059 3.55236 17.3538M18.759 19.37C16.9792 21.0032 14.606 22 12 22C8.44658 22 5.32605 20.1466 3.55236 17.3538M15 8C15 9.10457 14.1046 10 13 10C11.8954 10 11 9.10457 11 8C11 6.89543 11.8954 6 13 6C14.1046 6 15 6.89543 15 8Z" stroke="#6826F7" stroke-width="2"/>
</g>
</svg>
